<svg xmlns="http://www.w3.org/2000/svg" width="128" height="128" viewBox="0 0 128 128">
  <rect width="128" height="128" rx="24" fill="#0A0A0A"/>
  <circle cx="64" cy="70" r="30" fill="#111111" stroke="#D4AF37" stroke-width="3"/>
  <path d="M52 24c-2-10 2-18 8-18 6 0 10 8 8 18l-2 16h-12l-2-16z" fill="#D4AF37"/>
  <path d="M70 24c-2-10 2-18 8-18 6 0 10 8 8 18l-2 16H72l-2-16z" fill="#D4AF37"/>
  <path d="M40 46h48l-4 14H44l-4-14z" fill="#D4AF37"/>
  <circle cx="64" cy="76" r="12" fill="#0A0A0A" stroke="#D4AF37" stroke-width="2"/>
  <circle cx="58" cy="74" r="2" fill="#D4AF37"/>
  <circle cx="70" cy="74" r="2" fill="#D4AF37"/>
  <path d="M60 84c4 4 8 4 12 0" stroke="#D4AF37" stroke-width="2" fill="none"/>
</svg>
