<?xml version="1.0" encoding="UTF-8"?>
<svg xmlns="http://www.w3.org/2000/svg" version="1.1" width="512" height="512" style="background: transparent;" viewBox="0 0 512 512">
<path d="M0 0 C1.45108658 0.00273422 1.45108658 0.00273422 2.93148804 0.00552368 C17.26440977 0.05095174 31.21023917 0.55983928 45.3125 3.3125 C46.65803955 3.55395752 46.65803955 3.55395752 48.03076172 3.80029297 C107.84088904 14.62287989 165.35495829 48.68064457 202.3125 97.3125 C202.72918945 97.85277832 203.14587891 98.39305664 203.57519531 98.94970703 C211.2584873 108.9447116 218.00092968 119.40459036 224.3125 130.3125 C224.70679199 130.98974121 225.10108398 131.66698242 225.50732422 132.36474609 C238.68961173 155.2833756 247.29510918 180.85822563 252.625 206.6875 C252.77243652 207.39817627 252.91987305 208.10885254 253.07177734 208.84106445 C256.05713787 224.48358366 256.6873098 240.11919606 256.625 256 C256.62226578 257.45108658 256.62226578 257.45108658 256.61947632 258.93148804 C256.57404826 273.26440977 256.06516072 287.21023917 253.3125 301.3125 C253.15152832 302.20952637 252.99055664 303.10655273 252.82470703 304.03076172 C242.00212011 363.84088904 207.94435543 421.35495829 159.3125 458.3125 C158.77222168 458.72918945 158.23194336 459.14587891 157.67529297 459.57519531 C147.6802884 467.2584873 137.22040964 474.00092968 126.3125 480.3125 C125.63525879 480.70679199 124.95801758 481.10108398 124.26025391 481.50732422 C101.3416244 494.68961173 75.76677437 503.29510918 49.9375 508.625 C49.22682373 508.77243652 48.51614746 508.91987305 47.78393555 509.07177734 C32.14141634 512.05713787 16.50580394 512.6873098 0.625 512.625 C-0.34239105 512.62317719 -1.3097821 512.62135437 -2.30648804 512.61947632 C-16.63940977 512.57404826 -30.58523917 512.06516072 -44.6875 509.3125 C-45.58452637 509.15152832 -46.48155273 508.99055664 -47.40576172 508.82470703 C-107.21588904 498.00212011 -164.72995829 463.94435543 -201.6875 415.3125 C-202.10418945 414.77222168 -202.52087891 414.23194336 -202.95019531 413.67529297 C-210.6334873 403.6802884 -217.37592968 393.22040964 -223.6875 382.3125 C-224.08179199 381.63525879 -224.47608398 380.95801758 -224.88232422 380.26025391 C-238.06461173 357.3416244 -246.67010918 331.76677437 -252 305.9375 C-252.14743652 305.22682373 -252.29487305 304.51614746 -252.44677734 303.78393555 C-255.43213787 288.14141634 -256.0623098 272.50580394 -256 256.625 C-255.99817719 255.65760895 -255.99635437 254.6902179 -255.99447632 253.69351196 C-255.94904826 239.36059023 -255.44016072 225.41476083 -252.6875 211.3125 C-252.44604248 209.96696045 -252.44604248 209.96696045 -252.19970703 208.59423828 C-241.37712011 148.78411096 -207.31935543 91.27004171 -158.6875 54.3125 C-158.14722168 53.89581055 -157.60694336 53.47912109 -157.05029297 53.04980469 C-147.0552884 45.3665127 -136.59540964 38.62407032 -125.6875 32.3125 C-125.01025879 31.91820801 -124.33301758 31.52391602 -123.63525391 31.11767578 C-100.7166244 17.93538827 -75.14177437 9.32989082 -49.3125 4 C-48.60182373 3.85256348 -47.89114746 3.70512695 -47.15893555 3.55322266 C-31.51641634 0.56786213 -15.88080394 -0.0623098 0 0 Z " fill="currentColor" transform="translate(255.6875,-0.3125)"/>
<path d="M0 0 C6.62755418 4.31561668 12.93230126 8.91412574 19.1875 13.75 C25.0625262 18.2616926 30.94323084 22.73487393 37 27 C44.05163452 31.96665604 50.88570664 37.2065212 57.71875 42.46875 C62.05887536 45.80228002 66.39277195 49.04470569 71 52 C66.89778299 56.38709319 62.36532486 59.80886514 57.5 63.3125 C50.32404242 68.53468745 43.22911914 73.84809596 36.1875 79.25 C29.24717965 84.56441455 22.2510123 89.76453677 15.109375 94.8046875 C10.36875096 98.15171101 5.68569255 101.57657564 1 105 C-2.59634744 101.50640535 -5.83451967 97.88901869 -9 94 C-7.61839226 90.7425081 -6.18026874 89.09226686 -3.31640625 87.0390625 C-2.55134766 86.48347656 -1.78628906 85.92789063 -0.99804688 85.35546875 C-0.19431641 84.78441406 0.60941406 84.21335937 1.4375 83.625 C2.97822725 82.5135234 4.51856926 81.40151262 6.05859375 80.2890625 C8.01925781 78.87367188 9.97992188 77.45828125 12 76 C18.27 71.38 24.54 66.76 31 62 C-46.715 61.505 -46.715 61.505 -126 61 C-126 55.39 -126 49.78 -126 44 C-74.19 44 -22.38 44 31 44 C31 43.34 31 42.68 31 42 C30.34644531 41.80148438 29.69289063 41.60296875 29.01953125 41.3984375 C24.7425697 39.41764548 21.35261567 36.56148237 17.6875 33.625 C16.08960343 32.36063616 14.49062122 31.09764328 12.890625 29.8359375 C12.08173828 29.1975293 11.27285156 28.55912109 10.43945312 27.90136719 C5.97962168 24.42526958 1.42726705 21.07166637 -3.13598633 17.73291016 C-7.89282197 14.21435607 -7.89282197 14.21435607 -9 12 C-6.03 8.04 -3.06 4.08 0 0 Z " fill="currentColor" transform="translate(346,146)"/>
<path d="M0 0 C3.59634744 3.49359465 6.83451967 7.11098131 10 11 C8.61839226 14.2574919 7.18026874 15.90773314 4.31640625 17.9609375 C3.55134766 18.51652344 2.78628906 19.07210938 1.99804688 19.64453125 C1.19431641 20.21558594 0.39058594 20.78664063 -0.4375 21.375 C-1.97822725 22.4864766 -3.51856926 23.59848738 -5.05859375 24.7109375 C-7.01925781 26.12632812 -8.97992188 27.54171875 -11 29 C-17.27 33.62 -23.54 38.24 -30 43 C47.715 43.495 47.715 43.495 127 44 C127 49.28 127 54.56 127 60 C74.86 60.33 22.72 60.66 -31 61 C-21.595 67.93 -21.595 67.93 -12 75 C-8.11509082 77.90540102 -4.23697998 80.81489522 -0.375 83.75 C0.5325 84.43320312 1.44 85.11640625 2.375 85.8203125 C3.23351562 86.47257812 4.09203125 87.12484375 4.9765625 87.796875 C5.73018066 88.36760742 6.48379883 88.93833984 7.26025391 89.52636719 C9 91 9 91 10 93 C7.03 96.96 4.06 100.92 1 105 C-5.62755418 100.68438332 -11.93230126 96.08587426 -18.1875 91.25 C-24.0625262 86.7383074 -29.94323084 82.26512607 -36 78 C-43.05163452 73.03334396 -49.88570664 67.7934788 -56.71875 62.53125 C-61.05887536 59.19771998 -65.39277195 55.95529431 -70 53 C-65.89778299 48.61290681 -61.36532486 45.19113486 -56.5 41.6875 C-49.32404242 36.46531255 -42.22911914 31.15190404 -35.1875 25.75 C-28.24717965 20.43558545 -21.2510123 15.23546323 -14.109375 10.1953125 C-9.36875096 6.84828899 -4.68569255 3.42342436 0 0 Z " fill="currentColor" transform="translate(165,261)"/>
</svg>