<?xml version="1.0" encoding="UTF-8"?>
<svg version="1.1" xmlns="http://www.w3.org/2000/svg" width="512" height="512" viewBox="0 0 512 512">
<path d="M0 0 C1.21958405 -0.00990463 2.43916809 -0.01980927 3.69570923 -0.03001404 C5.04953103 -0.02577566 6.40335186 -0.02121776 7.75717163 -0.01637268 C9.18142229 -0.02207444 10.60566837 -0.02903795 12.02990723 -0.03717041 C15.90217683 -0.05514717 19.77422035 -0.05392399 23.64651918 -0.04822803 C26.88173538 -0.04513997 30.11690791 -0.05122497 33.3521179 -0.05726677 C40.99042783 -0.07132774 48.62862599 -0.06974017 56.26693726 -0.05836487 C64.13483342 -0.04690617 72.00238782 -0.06091765 79.8702389 -0.08776134 C86.63134265 -0.10996154 93.39233948 -0.11654531 100.15347707 -0.11068493 C104.18859934 -0.10732152 108.22350302 -0.10968807 112.25859451 -0.12693596 C116.05902839 -0.14247001 119.85895975 -0.13837874 123.65937424 -0.11963081 C125.04884499 -0.11596142 126.43835347 -0.11900501 127.82778931 -0.1295166 C139.15729997 -0.2086333 146.99820309 1.66287612 155.36801147 9.46580505 C162.58678901 17.22047438 164.39187429 25.20579116 164.32504272 35.6181488 C164.17804563 38.04189156 163.78127167 40.0580684 163.15707397 42.38768005 C163.80698901 42.38491467 164.45690405 42.3821493 165.12651348 42.37930012 C180.94240512 42.31303907 196.75824847 42.26339893 212.5742445 42.23224354 C220.22275465 42.21677645 227.87117213 42.19569002 235.5196228 42.16136169 C242.18623123 42.13145441 248.85277254 42.1121039 255.51944619 42.10541457 C259.04922914 42.10150453 262.57882009 42.09231891 266.10854149 42.07048988 C270.04947883 42.04631558 273.99022854 42.04571092 277.9312439 42.04710388 C279.10081131 42.03631805 280.27037872 42.02553223 281.47538757 42.01441956 C282.55085846 42.01854355 283.62632935 42.02266754 284.73439026 42.0269165 C285.66632297 42.02415112 286.59825567 42.02138575 287.55842876 42.01853657 C291.96011574 42.64380625 295.34361699 45.00194936 298.15707397 48.38768005 C298.5354228 50.32546937 298.5354228 50.32546937 298.54018402 52.56911278 C298.55376898 53.85359513 298.55376898 53.85359513 298.56762838 55.16402662 C298.5596365 56.57572643 298.5596365 56.57572643 298.55148315 58.01594543 C298.55757426 59.01545121 298.56366536 60.01495698 298.56994104 61.04475081 C298.58665243 64.40966279 298.58178358 67.77419973 298.57699585 71.1391449 C298.58433147 73.54524125 298.59291621 75.95133407 298.60266113 78.35742188 C298.62262354 84.2241815 298.62825473 90.09084898 298.62647325 95.95763277 C298.62516661 100.72583768 298.62896474 105.49401174 298.63639832 110.26221085 C298.63849747 111.63469652 298.64059507 113.0071822 298.64269114 114.37966788 C298.64425643 115.40430171 298.64425643 115.40430171 298.64585334 116.44963522 C298.66476476 129.37504728 298.66370288 142.3004026 298.65688401 155.22582276 C298.65130893 167.05285345 298.67213074 178.8796675 298.70524448 190.70664756 C298.73897075 202.84650859 298.75415109 214.98626581 298.74952745 227.12617457 C298.74728153 233.94343792 298.75254345 240.76050108 298.77742004 247.57772446 C298.80061263 253.98814723 298.79786329 260.39823296 298.77749252 266.80866814 C298.77407085 269.1641328 298.77922099 271.51962749 298.7934761 273.8750515 C298.81156922 277.08571586 298.79899227 280.29483115 298.77853394 283.50544739 C298.79105178 284.44211915 298.80356963 285.37879092 298.81646681 286.34384668 C298.75418343 290.88920019 298.6456495 292.76930202 295.74323273 296.4428196 C291.53137 299.61025286 288.47310407 299.5360776 283.35743713 299.53485107 C282.54254564 299.53852776 281.72765415 299.54220445 280.88806897 299.54599255 C278.14203767 299.55705544 275.39604418 299.56087762 272.6499939 299.56468201 C270.68739196 299.57094464 268.72479121 299.57759126 266.76219177 299.58459473 C261.41917381 299.60202192 256.0761648 299.61256096 250.73312545 299.62080026 C247.39728562 299.62594627 244.06144859 299.63202215 240.72561073 299.63831139 C230.2951703 299.65736739 219.86473698 299.67159823 209.43428248 299.67992336 C197.38159163 299.68970132 185.32908417 299.71603379 173.27645797 299.75642425 C163.9685593 299.78654969 154.6607133 299.80138879 145.35276681 299.80470437 C139.78968798 299.80705875 134.22680498 299.81606963 128.66377831 299.84116554 C123.4311945 299.86438908 118.19893623 299.86870254 112.96631432 299.85840416 C111.04462097 299.85790731 109.1229119 299.86427147 107.20126724 299.87796021 C104.5796722 299.89559175 101.95925657 299.88861649 99.33766174 299.87542725 C98.57540053 299.88639649 97.81313932 299.89736574 97.02777928 299.90866739 C92.11293173 299.84888042 89.61519699 298.8773591 86.15707397 295.38768005 C82.54470293 290.11476216 84.60303091 283.36964746 85.70004272 277.46531677 C86.31263801 274.57451084 86.97308572 271.69988499 87.65707397 268.82518005 C87.99545288 267.35081482 87.99545288 267.35081482 88.34066772 265.84666443 C90.00507711 258.69167378 90.00507711 258.69167378 91.15707397 256.38768005 C89.95295364 256.39878311 88.74883331 256.40988617 87.50822449 256.42132568 C76.16371777 256.5226588 64.81930281 256.59762507 53.4744463 256.64674091 C47.64181985 256.67284083 41.80955859 256.70824697 35.97714233 256.76487732 C30.34909664 256.81918169 24.72140231 256.84909762 19.09311485 256.86206627 C16.94526322 256.87130888 14.79743093 256.88935756 12.64972878 256.91633034 C9.64239487 256.95259897 6.63651502 256.95762622 3.6289978 256.95530701 C2.73995255 256.97328339 1.85090729 256.99125977 0.93492126 257.00978088 C-3.47883385 256.97292128 -5.27674595 256.82649164 -8.87242126 254.03970337 C-11.3471746 250.70903213 -11.96740919 248.32470774 -11.97435379 244.28433418 C-11.97819494 243.44542959 -11.98203608 242.606525 -11.98599362 241.74219906 C-11.98512714 240.8205206 -11.98426066 239.89884213 -11.98336792 238.94923401 C-11.98633904 237.970146 -11.98931016 236.99105798 -11.99237132 235.98230064 C-12.00107452 232.68659173 -12.00256793 229.39091909 -12.00405884 226.09519958 C-12.00868581 223.73836692 -12.01371031 221.38153501 -12.019104 219.02470398 C-12.03361095 211.94244384 -12.03961328 204.86019147 -12.04449952 197.77791911 C-12.04707679 194.44329835 -12.05086701 191.1086789 -12.05461884 187.7740593 C-12.06681083 176.69070907 -12.07711065 165.60736077 -12.08049393 154.52400398 C-12.08082328 153.45995869 -12.08082328 153.45995869 -12.08115928 152.37441754 C-12.08137756 151.66335162 -12.08159583 150.95228569 -12.08182073 150.21967232 C-12.08226419 148.77876735 -12.08271076 147.33786237 -12.0831604 145.8969574 C-12.08338183 145.18221791 -12.08360326 144.46747842 -12.0838314 143.73108016 C-12.08778045 132.14660425 -12.105238 120.56219121 -12.12851992 108.97773959 C-12.15222572 97.08649747 -12.16469541 85.1952869 -12.16586185 73.30402076 C-12.16677898 66.62653522 -12.17285886 59.94912043 -12.19068146 53.27165604 C-12.20711442 46.99261828 -12.20934087 40.7137363 -12.20054245 34.43468475 C-12.19976955 32.12759612 -12.2041479 29.82049927 -12.2140007 27.51343155 C-12.22664502 24.36879799 -12.22088419 21.22472249 -12.2104187 18.08009338 C-12.21847511 17.16287636 -12.22653151 16.24565933 -12.23483205 15.30064785 C-12.19724863 10.48643374 -11.96523725 7.29255654 -8.84292603 3.38768005 C-8.40656137 2.79755095 -7.97019672 2.20742186 -7.5206089 1.59941006 C-5.02964316 -0.19972491 -3.04891132 0.00697471 0 0 Z " fill="currentColor" transform="translate(149.84292602539063,63.61231994628906)"/>
<path d="M0 0 C6.42534928 3.82080999 10.47940092 8.85193749 12.48046875 16.08984375 C12.73346841 19.06888896 12.73346841 19.06888896 12.73773766 22.26907063 C12.74418655 23.49465508 12.75063544 24.72023953 12.75727975 25.98296291 C12.75433778 27.33469643 12.75120237 28.68642955 12.74789429 30.03816223 C12.75163213 31.48060887 12.75623418 32.92305349 12.76162493 34.36549491 C12.77385382 38.3251374 12.7735946 42.28469539 12.77123618 46.24435246 C12.77082799 50.51645593 12.78186739 54.78853232 12.79135132 59.06062317 C12.80796157 67.42889094 12.81346087 75.79713054 12.81457607 84.16541342 C12.81552652 90.96773399 12.81963661 97.77004527 12.82597733 104.5723629 C12.84358963 123.8594627 12.85281619 143.14654025 12.85131638 162.43364815 C12.85123647 163.47333967 12.85115655 164.51303119 12.85107422 165.58422852 C12.85099246 166.62518988 12.8509107 167.66615125 12.85082646 168.7386569 C12.85001351 185.60986778 12.86915338 202.48098938 12.89735095 219.35217444 C12.92607757 236.67663433 12.93989138 254.00105068 12.9381634 271.325535 C12.93749943 281.05142562 12.94299472 290.77722265 12.9645195 300.50309181 C12.98272834 308.78371525 12.98708106 317.06420268 12.97350065 325.34483746 C12.96696956 329.56877017 12.96685882 333.7924419 12.98420715 338.01634979 C12.99993678 341.88597543 12.99707567 345.75513315 12.97963889 349.62474736 C12.97656873 351.02176002 12.98020207 352.41880759 12.99135904 353.81577907 C13.05528867 362.39097316 12.90330043 370.4372295 6.7011503 376.96160442 C0.40394721 382.69176324 -4.53232757 383.60113197 -13.03125 383.46875 C-19.38466147 382.7786258 -23.18477531 379.75031926 -27.39453125 375.15234375 C-30.80837323 370.23239501 -31.76888562 365.84327154 -31.77680016 359.91061687 C-31.78324905 358.68503242 -31.78969794 357.45944797 -31.79634225 356.19672459 C-31.79340028 354.84499107 -31.79026487 353.49325795 -31.78695679 352.14152527 C-31.79069463 350.69907863 -31.79529668 349.25663401 -31.80068743 347.81419259 C-31.81291632 343.8545501 -31.8126571 339.89499211 -31.81029868 335.93533504 C-31.80989049 331.66323157 -31.82092989 327.39115518 -31.83041382 323.11906433 C-31.84702407 314.75079656 -31.85252337 306.38255696 -31.85363857 298.01427408 C-31.85458902 291.21195351 -31.85869911 284.40964223 -31.86503983 277.6073246 C-31.88265213 258.3202248 -31.89187869 239.03314725 -31.89037888 219.74603935 C-31.89029897 218.70634783 -31.89021905 217.66665631 -31.89013672 216.59545898 C-31.89005496 215.55449762 -31.8899732 214.51353625 -31.88988896 213.4410306 C-31.88907601 196.56981972 -31.90821588 179.69869812 -31.93641345 162.82751306 C-31.96514007 145.50305317 -31.97895388 128.17863682 -31.9772259 110.8541525 C-31.97656193 101.12826188 -31.98205722 91.40246485 -32.003582 81.67659569 C-32.02179084 73.39597225 -32.02614356 65.11548482 -32.01256315 56.83485004 C-32.00603206 52.61091733 -32.00592132 48.3872456 -32.02326965 44.16333771 C-32.03899928 40.29371207 -32.03613817 36.42455435 -32.01870139 32.55494014 C-32.01563123 31.15792748 -32.01926457 29.76087991 -32.03042154 28.36390843 C-32.09435117 19.78871434 -31.94236293 11.742458 -25.7402128 5.21808308 C-18.49824333 -1.37176875 -9.51742035 -3.43807588 0 0 Z " fill="currentColor" transform="translate(105.51953125,64.91015625)"/>
</svg>
