<?xml version="1.0" encoding="UTF-8"?>
<svg version="1.1" xmlns="http://www.w3.org/2000/svg" width="512" height="512" viewBox="0 0 512 512">
<path d="M0 0 C1.21883377 -0.00623996 2.43766754 -0.01247993 3.69343567 -0.01890898 C7.03695896 -0.03199398 10.3795684 -0.02743469 13.72303391 -0.0149641 C17.34411327 -0.00584578 20.96511761 -0.01991665 24.58618164 -0.03088379 C31.66414479 -0.04860186 38.74193757 -0.04485915 45.81990719 -0.03323323 C51.57607856 -0.0241726 57.33220244 -0.02298623 63.08837891 -0.02732849 C63.90992179 -0.02794142 64.73146467 -0.02855436 65.57790279 -0.02918586 C67.24723436 -0.03046486 68.91656591 -0.03176171 70.58589745 -0.03307623 C86.21226148 -0.04446236 101.8385314 -0.03139928 117.46487999 -0.00987476 C130.85163375 0.00799444 144.23824874 0.00488978 157.625 -0.0135498 C173.19825014 -0.03499136 188.77141795 -0.04336391 204.34468079 -0.03110075 C206.00761921 -0.02982665 207.67055765 -0.02856917 209.33349609 -0.02732849 C210.15153686 -0.02671139 210.96957762 -0.02609429 211.81240749 -0.02545848 C217.55676194 -0.02201543 223.30106385 -0.02781132 229.04541016 -0.0372467 C236.05290288 -0.04850467 243.06021654 -0.04534731 250.06768894 -0.02412373 C253.63800972 -0.01366404 257.20803275 -0.00940363 260.77835083 -0.02272034 C264.65969124 -0.03697737 268.5405519 -0.01987089 272.421875 0 C273.5346431 -0.00892289 274.64741119 -0.01784577 275.79389954 -0.02703905 C290.78212412 0.12102353 303.17905094 5.573485 314.0234375 15.82043457 C326.8094313 29.35988872 328.81589695 44.60266498 328.72851562 62.41833496 C328.7339466 64.29238933 328.7410747 66.16643943 328.74975586 68.04048157 C328.7678749 73.09418334 328.76096951 78.14755574 328.74823952 83.20126271 C328.73805382 88.51007372 328.74752043 93.81885808 328.75378418 99.12767029 C328.76104381 108.03873719 328.75151654 116.9496711 328.73242188 125.86071777 C328.71064975 136.13949232 328.71771386 146.41794948 328.7397275 156.69671637 C328.75792161 165.54892493 328.76042044 174.40103836 328.74997282 183.2532596 C328.74376078 188.52852764 328.74283907 193.80364683 328.75611877 199.07890511 C328.76773545 204.03921314 328.75954592 208.99911473 328.73654175 213.9593792 C328.73128588 215.77169497 328.73271442 217.58404539 328.74159241 219.39634705 C328.79681512 231.82160344 327.92991195 242.79744725 320.7109375 253.44543457 C320.14375 254.30008301 319.5765625 255.15473145 318.9921875 256.03527832 C310.63865454 267.63130105 298.59930467 275.45714981 284.4777832 278.12854004 C276.8912295 279.00960307 269.21144051 278.70781907 261.5859375 278.63293457 C259.80078627 278.6228856 258.01562956 278.61376314 256.23046875 278.60559082 C251.89048819 278.58372707 247.55077418 278.54930272 243.2109375 278.50793457 C243.23921631 279.52935547 243.23921631 279.52935547 243.26806641 280.57141113 C243.36919522 287.0058706 242.90163912 292.9635271 241.5859375 299.25793457 C241.40772461 300.11918945 241.22951172 300.98044434 241.04589844 301.86779785 C237.20001426 319.40854373 228.86175482 334.91940237 217.2109375 348.50793457 C216.73269531 349.1189502 216.25445312 349.72996582 215.76171875 350.35949707 C200.67743312 369.29049164 174.86588087 381.20014837 151.2109375 384.50793457 C128.6651482 386.14144336 107.34714484 384.30801286 87.2109375 373.50793457 C85.78587891 372.79830566 85.78587891 372.79830566 84.33203125 372.07434082 C77.60886432 368.62392552 71.95361547 364.39306499 66.2109375 359.50793457 C65.54578125 358.98844238 64.880625 358.4689502 64.1953125 357.93371582 C46.57346237 343.7144587 35.34082658 321.02884968 30.8359375 299.25793457 C30.66803711 298.4546875 30.50013672 297.65144043 30.32714844 296.82385254 C29.16837003 290.68833361 29.03838795 284.74036521 29.2109375 278.50793457 C28.1278833 278.52364502 27.0448291 278.53935547 25.92895508 278.55554199 C21.84928036 278.61049779 17.76963721 278.64451934 13.68969727 278.67272949 C11.93540923 278.68766849 10.18115756 278.70802719 8.42700195 278.73425293 C-9.66008506 278.99758192 -26.46747678 277.07465048 -40.3125 264.08215332 C-49.73094645 254.04079375 -56.11645491 241.36242585 -56.05648804 227.46456909 C-56.06101915 226.68371842 -56.06555026 225.90286775 -56.07021868 225.09835494 C-56.0828199 222.49702735 -56.08124508 219.89591028 -56.07958984 217.29455566 C-56.08557791 215.4230116 -56.09238409 213.55147001 -56.09994507 211.67993164 C-56.11758739 206.60524171 -56.1222998 201.53061926 -56.12357664 196.45590162 C-56.12500019 193.28094377 -56.12927374 190.10600296 -56.13457108 186.93104935 C-56.15306794 175.8415951 -56.16124242 164.75218888 -56.15966797 153.66271973 C-56.15846778 143.34775669 -56.17954695 133.0330033 -56.2111553 122.71809328 C-56.23736846 113.84562558 -56.2480331 104.97322613 -56.24675715 96.10072005 C-56.24624885 90.80910024 -56.2518584 85.51766668 -56.27311325 80.22608566 C-56.29257976 75.24372677 -56.29256286 70.26173012 -56.27807999 65.27935791 C-56.27600095 63.45939221 -56.28063825 61.63940333 -56.2928009 59.81947708 C-56.40355035 42.08709409 -53.03045205 27.98126467 -40.4765625 14.69543457 C-29.02205008 3.87835708 -15.55189009 -0.12470501 0 0 Z " fill="currentColor" transform="translate(119.7890625,63.4920654296875)"/>
<path d="M0 0 C1.21883377 -0.00623996 2.43766754 -0.01247993 3.69343567 -0.01890898 C7.03695896 -0.03199398 10.3795684 -0.02743469 13.72303391 -0.0149641 C17.34411327 -0.00584578 20.96511761 -0.01991665 24.58618164 -0.03088379 C31.66414479 -0.04860186 38.74193757 -0.04485915 45.81990719 -0.03323323 C51.57607856 -0.0241726 57.33220244 -0.02298623 63.08837891 -0.02732849 C63.90992179 -0.02794142 64.73146467 -0.02855436 65.57790279 -0.02918586 C67.24723436 -0.03046486 68.91656591 -0.03176171 70.58589745 -0.03307623 C86.21226148 -0.04446236 101.8385314 -0.03139928 117.46487999 -0.00987476 C130.85163375 0.00799444 144.23824874 0.00488978 157.625 -0.0135498 C173.19825014 -0.03499136 188.77141795 -0.04336391 204.34468079 -0.03110075 C206.00761921 -0.02982665 207.67055765 -0.02856917 209.33349609 -0.02732849 C210.15153686 -0.02671139 210.96957762 -0.02609429 211.81240749 -0.02545848 C217.55676194 -0.02201543 223.30106385 -0.02781132 229.04541016 -0.0372467 C236.05290288 -0.04850467 243.06021654 -0.04534731 250.06768894 -0.02412373 C253.63800972 -0.01366404 257.20803275 -0.00940363 260.77835083 -0.02272034 C264.65969124 -0.03697737 268.5405519 -0.01987089 272.421875 0 C273.5346431 -0.00892289 274.64741119 -0.01784577 275.79389954 -0.02703905 C290.78212412 0.12102353 303.17905094 5.573485 314.0234375 15.82043457 C341.33012879 44.73627017 328.2109375 95.78279382 328.2109375 128.50793457 C201.4909375 128.50793457 74.7709375 128.50793457 -55.7890625 128.50793457 C-55.7890625 30.90071284 -55.7890625 30.90071284 -40.4765625 14.69543457 C-29.02205008 3.87835708 -15.55189009 -0.12470501 0 0 Z " fill="currentColor" transform="translate(119.7890625,63.4920654296875)"/>
<path d="M0 0 C16.76595517 12.96956319 28.89236164 32.38098262 32.22924805 53.45605469 C34.82747554 76.63853935 31.0140978 98.33015159 17.63549805 117.70605469 C14.79057057 121.20223062 11.77938645 124.47832926 8.63549805 127.70605469 C7.83112305 128.57230469 7.02674805 129.43855469 6.19799805 130.33105469 C5.35237305 131.11480469 4.50674805 131.89855469 3.63549805 132.70605469 C2.99999023 133.29773438 2.36448242 133.88941406 1.7097168 134.49902344 C-7.68423549 142.66149963 -20.26891511 148.68215798 -32.36450195 151.70605469 C-33.1740332 151.9084375 -33.98356445 152.11082031 -34.81762695 152.31933594 C-55.96397112 156.86394499 -77.8220884 152.41019567 -96.36450195 141.70605469 C-100.15281257 139.18546632 -103.7737048 136.49889692 -107.36450195 133.70605469 C-108.91137695 132.56136719 -108.91137695 132.56136719 -110.48950195 131.39355469 C-126.42629047 116.49612194 -136.74561004 95.67562801 -137.58325195 73.84667969 C-138.20353202 48.38242734 -131.46400131 27.09533214 -113.84521484 8.07592773 C-83.43531771 -23.20944485 -34.66607781 -25.78669648 0 0 Z " fill="currentColor" transform="translate(308.364501953125,273.2939453125)"/>
<path d="M0 0 C2.06810815 1.80695087 4.09704227 3.64719651 6.125 5.5 C6.86363281 6.15613281 7.60226562 6.81226563 8.36328125 7.48828125 C27.30149205 25.21201761 38.23549081 51.8864583 39.37890625 77.49609375 C40.2159668 106.02484731 31.78408429 131.73761537 13.125 153.5 C12.40763672 154.41652344 12.40763672 154.41652344 11.67578125 155.3515625 C-3.40850438 174.28255707 -29.22005663 186.1922138 -52.875 189.5 C-75.4207893 191.13350879 -96.73879266 189.30007828 -116.875 178.5 C-117.82503906 178.02691406 -118.77507812 177.55382812 -119.75390625 177.06640625 C-126.47707318 173.61599095 -132.13232203 169.38513042 -137.875 164.5 C-138.54015625 163.98050781 -139.2053125 163.46101562 -139.890625 162.92578125 C-160.05986524 146.65100813 -171.97139048 119.75635703 -174.875 94.5 C-177.26335606 63.24728532 -168.16161865 35.30925631 -147.875 11.5 C-110.93052372 -30.32969629 -42.89859116 -36.22340908 0 0 Z M-134.5625 28.49609375 C-150.44328053 49.12501306 -154.40303839 71.46667229 -152.6328125 96.9921875 C-149.88904516 117.65443546 -137.0139548 137.73849751 -120.83203125 150.3671875 C-101.14419861 164.56739439 -79.43993205 170.83985135 -55.1328125 168.07421875 C-31.19662484 163.94990735 -10.90937228 150.40139205 3.06640625 130.7734375 C15.97377928 111.42631681 19.61445708 89.02685194 16.5 66.1875 C12.05102215 44.61762806 -0.57208211 24.89549522 -18.78515625 12.37890625 C-27.46540247 7.10052644 -36.94257231 1.89313928 -46.875 -0.5 C-47.6896875 -0.70238281 -48.504375 -0.90476562 -49.34375 -1.11328125 C-81.77933297 -7.80995358 -113.05615867 3.62938658 -134.5625 28.49609375 Z " fill="currentColor" transform="translate(323.875,258.5)"/>
<path d="M0 0 C0.71788952 -0.00453111 1.43577904 -0.00906223 2.17542279 -0.01373065 C4.58129819 -0.02639237 6.98694774 -0.02475316 9.39285278 -0.02310181 C11.11767875 -0.02908595 12.84250203 -0.03589123 14.56732178 -0.04345703 C19.25330305 -0.06113567 23.93921129 -0.06581319 28.62522268 -0.0670886 C32.53677236 -0.06898737 36.44830501 -0.07634464 40.35984814 -0.08343279 C49.58830637 -0.09972135 58.81672558 -0.10460131 68.04519653 -0.10317993 C77.56555928 -0.10197828 87.08569539 -0.12308368 96.60600078 -0.15466726 C104.77936682 -0.18081635 112.95265878 -0.19154781 121.12606633 -0.19026911 C126.00783001 -0.18975909 130.88939232 -0.19546473 135.77111435 -0.21662521 C140.36273275 -0.23598463 144.95395718 -0.23614786 149.54558945 -0.22159195 C151.22981338 -0.21949991 152.91406183 -0.22422828 154.59824371 -0.23631287 C156.89978047 -0.25175624 159.19995725 -0.24246471 161.50146484 -0.22705078 C162.78862333 -0.22814032 164.07578182 -0.22922985 165.40194511 -0.2303524 C169.52385891 0.35996203 171.66253349 1.66461463 174.87771606 4.26742554 C177.38075984 8.0219912 177.33051681 9.81488488 176.87771606 14.26742554 C174.76826177 18.26032117 173.12703381 20.70241756 168.87771606 22.26742554 C165.6536274 22.52469444 165.6536274 22.52469444 161.75543213 22.53485107 C161.03754261 22.53938219 160.31965309 22.5439133 159.58000934 22.54858172 C157.17413394 22.56124344 154.76848439 22.55960423 152.36257935 22.55795288 C150.63775338 22.56393702 148.9129301 22.5707423 147.18811035 22.57830811 C142.50212908 22.59598675 137.81622084 22.60066426 133.13020945 22.60193968 C129.21865977 22.60383845 125.30712711 22.61119571 121.39558399 22.61828387 C112.16712576 22.63457243 102.93870655 22.63945239 93.7102356 22.63803101 C84.18987285 22.63682936 74.66973674 22.65793475 65.14943135 22.68951833 C56.97606531 22.71566742 48.80277335 22.72639888 40.6293658 22.72512019 C35.74760212 22.72461016 30.86603981 22.7303158 25.98431778 22.75147629 C21.39269938 22.7708357 16.80147495 22.77099893 12.20984268 22.75644302 C10.52561874 22.75435098 8.8413703 22.75907936 7.15718842 22.77116394 C4.85565166 22.78660732 2.55547488 22.77731579 0.25396729 22.76190186 C-1.0331912 22.76299139 -2.32034969 22.76408092 -3.64651299 22.76520348 C-8.29313648 22.09974344 -11.63812651 20.22381487 -14.49728394 16.45492554 C-15.42406626 13.21118739 -15.47569289 10.62481062 -15.12228394 7.26742554 C-11.13303659 0.85613516 -7.28614841 0.01898384 0 0 Z " fill="currentColor" transform="translate(239.12228393554688,116.73257446289063)"/>
<path d="M0 0 C8.163784 4.95101731 12.691398 11.7070065 15.66015625 20.61328125 C16.29769605 29.32980895 16.43783801 37.02871146 11.66015625 44.61328125 C11.24765625 45.309375 10.83515625 46.00546875 10.41015625 46.72265625 C5.94829466 53.46615161 -0.65086804 57.76031218 -8.40234375 59.98828125 C-19.57683162 61.76200948 -27.04464711 59.68386979 -36.30078125 53.2109375 C-39.26103989 50.89150113 -41.16956224 48.71368341 -43.33984375 45.61328125 C-43.73171875 45.09894531 -44.12359375 44.58460938 -44.52734375 44.0546875 C-48.88091505 37.26734891 -48.22895561 28.35962064 -47.33984375 20.61328125 C-45.56028621 12.73523998 -41.48312286 6.47026934 -34.8359375 1.88671875 C-23.72557393 -4.93798784 -11.86084803 -5.66702698 0 0 Z " fill="currentColor" transform="translate(165.33984375,110.38671875)"/>
<path d="M0 0 C3.54433566 2.1574217 5.51726818 4.14794431 7 8 C7.04295349 10.63722229 7.04295349 10.63722229 6.76342773 13.68188477 C6.67173813 14.83102356 6.58004852 15.98016235 6.48558044 17.16412354 C6.33609703 19.03387848 6.33609703 19.03387848 6.18359375 20.94140625 C3.23307161 53.83381616 3.23307161 53.83381616 15.81640625 82.890625 C23.43580359 91.23034236 32.28563408 98.42835833 41.55773926 104.85469055 C43 106 43 106 44 108 C44.04259733 112.41308343 43.80364944 115.96303299 41.0625 119.5 C37.80732782 121.86739795 35.27845115 122.52552776 31.19619751 122.47077942 C28.45869699 121.88396567 27.28314182 120.86136783 25.23583984 118.9675293 C24.54174011 118.32979584 23.84764038 117.69206238 23.13250732 117.03500366 C19.66989184 113.73070777 16.23872119 110.40127538 12.8515625 107.01953125 C12.1129599 106.28425705 11.3743573 105.54898285 10.6133728 104.79142761 C9.06760587 103.25068545 7.52315617 101.70862069 5.97998047 100.1652832 C3.61575519 97.80326382 1.24361835 95.44938262 -1.12890625 93.09570312 C-2.63590519 91.59163515 -4.14243259 90.08709453 -5.6484375 88.58203125 C-6.35672699 87.88092728 -7.06501648 87.1798233 -7.79476929 86.45747375 C-8.44950226 85.79966415 -9.10423523 85.14185455 -9.77880859 84.46411133 C-10.35424408 83.89010086 -10.92967957 83.31609039 -11.52255249 82.72468567 C-14.97959507 78.68913669 -15.26026631 75.48989068 -15.30639648 70.21533203 C-15.31472 69.54163574 -15.32304352 68.86793945 -15.33161926 68.17382812 C-15.35566943 65.95176373 -15.36448498 63.72999315 -15.37109375 61.5078125 C-15.38006376 59.95848505 -15.38918567 58.40915847 -15.39845276 56.85983276 C-15.41493165 53.61340228 -15.42264087 50.36707478 -15.42553711 47.12060547 C-15.43092049 42.96870089 -15.468602 38.81776946 -15.51428127 34.6661396 C-15.5440818 31.46614073 -15.5512613 28.2663754 -15.55226326 25.06624985 C-15.55645952 23.53606585 -15.56887016 22.00588077 -15.58978081 20.47583389 C-15.61676114 18.33098837 -15.61185319 16.18838786 -15.59936523 14.04345703 C-15.60443588 12.82530304 -15.60950653 11.60714905 -15.61473083 10.3520813 C-14.79255352 5.86880985 -13.17910788 4.22179545 -10 1 C-6.79386153 -0.60306924 -3.47860003 -0.48740461 0 0 Z " fill="currentColor" transform="translate(260,267)"/>
</svg>
