<svg version="1.1" id="Layer_1" xmlns="http://www.w3.org/2000/svg" xmlns:xlink="http://www.w3.org/1999/xlink" x="0px" y="0px" width="100%" viewBox="0 0 512 512" enable-background="new 0 0 512 512" xml:space="preserve">

<path fill="currentColor" opacity="1.000000" stroke="none" d="
M291.000000,0.999999 
	C364.926025,1.000000 438.852051,1.000000 513.000000,1.000000 
	C513.000000,72.687408 513.000000,144.375046 512.669189,216.867157 
	C511.835449,215.116165 511.332550,212.560684 510.756409,209.610901 
	C509.162140,202.464523 507.641083,195.712463 506.068298,188.549042 
	C503.716339,180.411469 501.416107,172.685257 499.065430,164.568909 
	C494.709198,154.107452 490.403412,144.036133 486.054260,133.600983 
	C484.994812,131.415131 484.054962,129.545288 482.947845,127.780312 
	C480.042572,123.148567 477.064392,118.562531 474.060059,113.600822 
	C467.868439,104.859154 462.139374,96.135818 455.504822,88.166321 
	C444.175598,74.557640 431.090424,62.797974 416.854889,52.145351 
	C396.818695,37.151989 375.401367,24.798666 351.641724,17.101446 
	C335.703705,11.938138 319.232391,8.420940 302.574921,4.095195 
	C298.904846,3.670061 295.645935,3.401506 292.427124,2.883840 
	C291.864960,2.793433 291.471405,1.654607 291.000000,0.999999 
z" data-index="1" style="opacity: 1; visibility: hidden; fill: rgb(255, 255, 255);"></path>

<path fill="currentColor" opacity="1.000000" stroke="none" d="
M101.000000,513.000000 
	C67.710777,513.000000 34.421547,513.000000 1.000000,513.000000 
	C1.000000,436.312500 1.000000,359.624908 1.294437,282.131775 
	C2.114669,282.884125 2.640463,284.442047 3.095363,286.411194 
	C3.738411,290.215302 4.452353,293.608154 5.094700,297.416321 
	C6.311867,303.234955 7.600628,308.638275 8.936441,314.447754 
	C11.294623,322.249786 13.605751,329.645569 15.960830,337.420532 
	C18.392208,343.532684 20.779634,349.265656 23.203682,355.351257 
	C25.023214,359.091156 26.806126,362.478394 28.751621,366.149658 
	C29.927504,368.323761 30.940802,370.213867 32.090210,372.420685 
	C33.453075,374.842834 34.679832,376.948303 36.046276,379.373596 
	C37.757801,382.157898 39.329639,384.622375 41.047009,387.396545 
	C43.090187,390.151611 44.987839,392.596954 46.942108,395.392059 
	C48.963768,398.177734 50.928818,400.613617 53.035606,403.366730 
	C57.436714,408.493439 61.696083,413.302948 66.089722,418.420898 
	C70.467773,422.857056 74.711563,426.984711 79.088013,431.419281 
	C82.202728,436.484680 85.184769,441.243225 88.095810,446.464478 
	C88.072617,452.290314 88.120422,457.653412 88.097885,463.461243 
	C88.351334,472.770386 88.866638,481.633209 88.944756,490.499847 
	C89.021965,499.264526 91.962082,506.283051 99.686485,510.949707 
	C100.309738,511.326233 100.570694,512.302429 101.000000,513.000000 
z" data-index="3" style="opacity: 1; visibility: hidden; fill: rgb(255, 255, 255);"></path>
<path fill="currentColor" opacity="1.000000" stroke="none" d="
M108.883850,43.958336 
	C112.338493,41.718128 115.793137,39.477921 119.769753,36.993610 
	C120.556549,36.590210 120.793152,36.396446 121.001526,36.168217 
	C121.001526,36.168217 121.468925,36.008408 122.042244,36.184891 
	C123.580444,36.569359 124.535706,36.863346 125.511642,36.972427 
	C140.350159,38.630985 155.259796,39.803017 170.019730,41.987793 
	C225.038773,50.131760 276.861267,67.797119 325.806946,94.286942 
	C362.614777,114.207657 396.405914,138.327301 426.377777,167.337891 
	C443.872864,184.271835 459.904297,202.886047 475.206604,221.863205 
	C487.064880,236.569244 496.712555,253.051117 507.513336,268.625366 
	C508.790161,270.466461 511.144897,271.559967 513.000000,273.000000 
	C513.000000,275.700012 513.000000,278.400024 513.000000,281.550049 
	C512.346313,282.441559 511.226990,282.795807 511.124817,283.340759 
	C510.799255,285.077393 510.851929,286.885010 510.228882,288.588043 
	C508.264282,286.267059 506.713898,284.088013 505.411591,281.769653 
	C486.233276,247.629578 462.820648,216.589203 435.705536,188.447250 
	C423.844604,176.137146 410.930969,164.786163 397.989258,153.584351 
	C372.712555,131.705841 344.849548,113.613441 315.260223,98.058830 
	C288.463623,83.972343 260.513489,72.784637 231.581085,64.103569 
	C198.653748,54.223831 165.030457,47.908470 130.640961,45.945705 
	C123.374451,45.530975 116.135498,44.633427 108.883850,43.958336 
z" data-index="4" style="opacity: 1;"></path>
<path fill="currentColor" opacity="1.000000" stroke="none" d="
M208.887329,4.953667 
	C212.312714,4.302328 215.747314,3.694887 219.159317,2.979669 
	C220.685059,2.659844 222.165466,2.123699 223.333221,1.342863 
	C228.354935,1.000000 233.709854,1.000000 239.649353,1.331382 
	C241.749557,2.578310 243.159424,3.810416 244.798035,4.357877 
	C255.209518,7.836355 265.734680,10.981253 276.105591,14.573305 
	C314.977264,28.036829 351.779297,45.941380 385.869354,68.863533 
	C406.102844,82.468559 425.640167,97.319695 444.228485,113.097343 
	C460.524902,126.929596 475.027435,142.870331 490.406677,157.792801 
	C493.095764,160.402069 496.202209,162.581238 499.115906,164.959045 
	C501.416107,172.685257 503.716339,180.411469 505.724731,188.487213 
	C500.000458,183.076248 494.289368,177.551285 489.185730,171.512878 
	C470.977844,149.970016 450.610413,130.635529 428.918793,112.717621 
	C403.717682,91.900864 376.671844,73.744400 348.034882,57.923996 
	C314.946014,39.644142 280.183411,25.479101 243.973206,14.792022 
	C232.324677,11.354085 220.585205,8.224380 208.887329,4.953667 
z" data-index="5" style="opacity: 1;"></path>
<path fill="currentColor" opacity="1.000000" stroke="none" d="
M499.065430,164.568909 
	C496.202209,162.581238 493.095764,160.402069 490.406677,157.792801 
	C475.027435,142.870331 460.524902,126.929596 444.228485,113.097343 
	C425.640167,97.319695 406.102844,82.468559 385.869354,68.863533 
	C351.779297,45.941380 314.977264,28.036829 276.105591,14.573305 
	C265.734680,10.981253 255.209518,7.836355 244.798035,4.357877 
	C243.159424,3.810416 241.749557,2.578310 240.116959,1.331382 
	C252.020889,1.000000 264.041779,1.000000 276.654266,1.320768 
	C279.410858,2.789798 281.477783,4.202808 283.755493,5.046980 
	C323.860931,19.911011 361.870911,38.929226 397.440643,62.693447 
	C426.673187,82.223778 454.092133,104.013832 478.771881,129.154312 
	C480.771881,131.191620 483.635376,132.381271 486.097595,133.964798 
	C490.403412,144.036133 494.709198,154.107452 499.065430,164.568909 
z" data-index="6" style="opacity: 1;"></path>
<path fill="currentColor" opacity="1.000000" stroke="none" d="
M171.951416,13.889758 
	C177.038574,12.273429 182.125748,10.657098 187.763306,9.417747 
	C190.133438,10.497054 191.896286,11.487918 193.781235,11.859737 
	C248.735046,22.699793 300.715149,41.466248 349.523315,69.142181 
	C384.268890,88.844109 416.304626,112.193329 445.558685,139.253250 
	C467.057098,159.139175 486.740051,180.800247 504.308411,204.317337 
	C505.996063,206.576416 508.633240,208.126160 510.829651,210.005203 
	C511.332550,212.560684 511.835449,215.116165 512.669189,217.335815 
	C513.000000,219.370560 513.000000,221.741104 512.638123,224.527893 
	C510.746155,223.803635 508.904846,222.917374 507.733612,221.483688 
	C494.481506,205.261902 482.047974,188.305191 467.978607,172.833527 
	C449.279022,152.270096 428.857635,133.352432 406.791504,116.331520 
	C360.204041,80.395889 309.126068,52.911854 253.059341,34.869194 
	C228.612366,27.001993 203.731583,20.921709 178.357178,16.855389 
	C176.120926,16.497025 174.082001,14.907469 171.951416,13.889758 
z" data-index="7" style="opacity: 1;"></path>
<path fill="currentColor" opacity="1.000000" stroke="none" d="
M0.999999,243.000000 
	C1.000000,236.978851 1.000000,230.957703 1.386425,224.431061 
	C2.425334,223.803864 3.099300,223.749878 3.727226,223.550735 
	C39.161285,212.313126 75.303604,206.145782 112.582375,209.072495 
	C126.778862,210.187042 140.936264,211.957748 155.049576,213.883209 
	C159.670364,214.513626 164.095612,216.577545 168.480194,218.279739 
	C165.233688,223.382446 162.117264,228.191299 158.618942,232.923218 
	C143.766220,230.897278 129.341843,228.389709 114.809433,227.181305 
	C103.775528,226.263794 92.592644,226.688492 81.497597,227.098785 
	C72.716614,227.423492 63.783257,227.778397 55.243820,229.627014 
	C37.050167,233.565552 19.068523,238.483444 0.999999,243.000000 
z" data-index="8" style="opacity: 1;"></path>
<path fill="currentColor" opacity="1.000000" stroke="none" d="
M0.999999,243.468277 
	C19.068523,238.483444 37.050167,233.565552 55.243820,229.627014 
	C63.783257,227.778397 72.716614,227.423492 81.497597,227.098785 
	C92.592644,226.688492 103.775528,226.263794 114.809433,227.181305 
	C129.341843,228.389709 143.766220,230.897278 158.543335,233.260406 
	C155.269135,239.200775 151.688644,244.727020 147.813446,250.000458 
	C145.448212,249.172455 143.410339,248.395721 141.301987,248.054153 
	C125.044861,245.420227 108.700371,244.678894 92.216339,244.878906 
	C66.866928,245.186478 42.285038,249.433853 18.192636,257.069519 
	C12.511526,258.870026 6.733462,260.364655 1.000000,262.000000 
	C1.000000,255.978851 1.000000,249.957703 0.999999,243.468277 
z" data-index="9" style="opacity: 1;"></path>
<path fill="currentColor" opacity="1.000000" stroke="none" d="
M138.941544,26.857298 
	C142.357956,25.237997 145.774368,23.618694 149.716537,22.284843 
	C152.703995,23.363153 155.113144,24.448017 157.635818,24.902040 
	C175.621750,28.139084 193.807877,30.474821 211.597244,34.550877 
	C253.996780,44.265835 294.195587,59.922066 332.508240,80.643723 
	C369.455933,100.627136 403.257904,124.909462 433.872131,153.531128 
	C459.810150,177.780960 483.108551,204.422974 503.040283,233.920914 
	C505.948761,238.225281 509.660126,241.987122 513.000000,246.000000 
	C513.000000,249.030594 513.000000,252.061188 512.663818,255.469376 
	C510.751556,254.207397 508.849152,252.776230 507.648865,250.896713 
	C491.941223,226.300644 474.231293,203.171677 454.187012,182.050415 
	C440.025299,167.127869 424.699005,153.218262 409.114441,139.757385 
	C375.778351,110.963974 338.489624,88.278381 298.374634,70.136711 
	C251.142365,48.776325 201.836746,35.183434 150.251938,29.829937 
	C146.420227,29.432281 142.708862,27.875319 138.941544,26.857298 
z" data-index="10" style="opacity: 1;"></path>
<path fill="currentColor" opacity="1.000000" stroke="none" d="
M168.610275,217.985886 
	C164.095612,216.577545 159.670364,214.513626 155.049576,213.883209 
	C140.936264,211.957748 126.778862,210.187042 112.582375,209.072495 
	C75.303604,206.145782 39.161285,212.313126 3.727226,223.550735 
	C3.099300,223.749878 2.425334,223.803864 1.386425,223.962799 
	C1.000000,221.629440 1.000000,219.258896 1.000004,216.444183 
	C1.662812,215.430313 2.718187,214.969162 2.911615,214.269669 
	C3.406012,212.481750 3.516440,210.587677 4.366107,208.358810 
	C14.465982,205.654526 23.927353,203.077637 33.505241,201.051590 
	C54.528599,196.604446 75.784698,194.192139 97.311951,195.023926 
	C110.733734,195.542511 124.223297,195.618607 137.541733,197.131775 
	C150.865433,198.645538 164.014023,201.700562 177.142670,204.419495 
	C174.234070,209.167984 171.422180,213.576935 168.610275,217.985886 
z" data-index="11" style="opacity: 1;"></path>
<path fill="currentColor" opacity="1.000000" stroke="none" d="
M513.000000,245.545898 
	C509.660126,241.987122 505.948761,238.225281 503.040283,233.920914 
	C483.108551,204.422974 459.810150,177.780960 433.872131,153.531128 
	C403.257904,124.909462 369.455933,100.627136 332.508240,80.643723 
	C294.195587,59.922066 253.996780,44.265835 211.597244,34.550877 
	C193.807877,30.474821 175.621750,28.139084 157.635818,24.902040 
	C155.113144,24.448017 152.703995,23.363153 150.086823,22.229834 
	C153.018768,20.591955 156.106201,19.294540 159.786957,18.239836 
	C161.887894,19.064466 163.349228,19.913240 164.910751,20.183903 
	C173.428711,21.660330 182.015076,22.768988 190.498367,24.414278 
	C244.888992,34.963043 296.354370,53.428436 344.443359,81.160362 
	C389.458679,107.119751 430.392944,138.237213 464.680786,177.424835 
	C480.090057,195.036118 493.959991,213.992722 508.600861,232.280869 
	C509.778412,233.751801 511.520355,234.770905 513.000000,236.000000 
	C513.000000,239.030594 513.000000,242.061188 513.000000,245.545898 
z" data-index="12" style="opacity: 1; visibility: visible;"></path>
<path fill="currentColor" opacity="1.000000" stroke="none" d="
M138.583649,26.924171 
	C142.708862,27.875319 146.420227,29.432281 150.251938,29.829937 
	C201.836746,35.183434 251.142365,48.776325 298.374634,70.136711 
	C338.489624,88.278381 375.778351,110.963974 409.114441,139.757385 
	C424.699005,153.218262 440.025299,167.127869 454.187012,182.050415 
	C474.231293,203.171677 491.941223,226.300644 507.648865,250.896713 
	C508.849152,252.776230 510.751556,254.207397 512.663818,255.923492 
	C513.000000,259.030609 513.000000,262.061188 512.662354,265.468689 
	C510.988403,264.448456 509.339020,263.240692 508.362335,261.626007 
	C491.166901,233.198349 471.029266,206.947632 448.157837,182.954117 
	C434.996552,169.147064 420.642761,156.416229 406.264801,143.842392 
	C378.439178,119.508240 347.364807,99.912926 314.436768,83.292709 
	C289.140656,70.524628 262.920746,59.978157 235.672974,52.014221 
	C204.138519,42.797386 172.114349,36.376678 139.318695,33.879345 
	C136.325882,33.651451 133.433670,32.102867 130.494736,31.167570 
	C133.071732,29.775394 135.648743,28.383221 138.583649,26.924171 
z" data-index="13" style="opacity: 1;"></path>
<path fill="currentColor" opacity="1.000000" stroke="none" d="
M513.000000,235.541931 
	C511.520355,234.770905 509.778412,233.751801 508.600861,232.280869 
	C493.959991,213.992722 480.090057,195.036118 464.680786,177.424835 
	C430.392944,138.237213 389.458679,107.119751 344.443359,81.160362 
	C296.354370,53.428436 244.888992,34.963043 190.498367,24.414278 
	C182.015076,22.768988 173.428711,21.660330 164.910751,20.183903 
	C163.349228,19.913240 161.887894,19.064466 160.160431,18.175520 
	C163.682816,16.574169 167.425064,15.279843 171.559372,13.937637 
	C174.082001,14.907469 176.120926,16.497025 178.357178,16.855389 
	C203.731583,20.921709 228.612366,27.001993 253.059341,34.869194 
	C309.126068,52.911854 360.204041,80.395889 406.791504,116.331520 
	C428.857635,133.352432 449.279022,152.270096 467.978607,172.833527 
	C482.047974,188.305191 494.481506,205.261902 507.733612,221.483688 
	C508.904846,222.917374 510.746155,223.803635 512.638123,224.972076 
	C513.000000,228.361282 513.000000,231.722580 513.000000,235.541931 
z" data-index="14" style="opacity: 1;"></path>
<path fill="currentColor" opacity="1.000000" stroke="none" d="
M101.467941,513.000000 
	C100.570694,512.302429 100.309738,511.326233 99.686485,510.949707 
	C91.962082,506.283051 89.021965,499.264526 88.944756,490.499847 
	C88.866638,481.633209 88.351334,472.770386 88.523941,463.458130 
	C98.750404,461.210693 108.236305,462.216827 117.326431,465.995087 
	C132.455658,472.283417 142.946350,482.864105 147.036118,499.118927 
	C137.465683,503.563812 127.895256,508.008728 118.662415,512.726807 
	C113.311958,513.000000 107.623917,513.000000 101.467941,513.000000 
z" data-index="15" style="opacity: 1;"></path>
<path fill="currentColor" opacity="1.000000" stroke="none" d="
M130.120956,31.125723 
	C133.433670,32.102867 136.325882,33.651451 139.318695,33.879345 
	C172.114349,36.376678 204.138519,42.797386 235.672974,52.014221 
	C262.920746,59.978157 289.140656,70.524628 314.436768,83.292709 
	C347.364807,99.912926 378.439178,119.508240 406.264801,143.842392 
	C420.642761,156.416229 434.996552,169.147064 448.157837,182.954117 
	C471.029266,206.947632 491.166901,233.198349 508.362335,261.626007 
	C509.339020,263.240692 510.988403,264.448456 512.662354,265.922791 
	C513.000000,268.041656 513.000000,270.083344 513.000000,272.562500 
	C511.144897,271.559967 508.790161,270.466461 507.513336,268.625366 
	C496.712555,253.051117 487.064880,236.569244 475.206604,221.863205 
	C459.904297,202.886047 443.872864,184.271835 426.377777,167.337891 
	C396.405914,138.327301 362.614777,114.207657 325.806946,94.286942 
	C276.861267,67.797119 225.038773,50.131760 170.019730,41.987793 
	C155.259796,39.803017 140.350159,38.630985 125.511642,36.972427 
	C124.535706,36.863346 123.580444,36.569359 122.282440,36.127388 
	C124.548599,34.290222 127.147888,32.687046 130.120956,31.125723 
z" data-index="16" style="opacity: 1;"></path>
<path fill="currentColor" opacity="1.000000" stroke="none" d="
M1.000000,262.464661 
	C6.733462,260.364655 12.511526,258.870026 18.192636,257.069519 
	C42.285038,249.433853 66.866928,245.186478 92.216339,244.878906 
	C108.700371,244.678894 125.044861,245.420227 141.301987,248.054153 
	C143.410339,248.395721 145.448212,249.172455 147.740234,250.332169 
	C145.320648,254.983063 142.679535,259.049408 139.813232,262.804840 
	C138.403259,262.002441 137.253189,261.204132 136.028473,261.065643 
	C118.909859,259.129913 101.877548,257.591187 84.497742,258.737122 
	C58.239887,260.468445 32.892342,265.490051 8.284555,274.657349 
	C6.005887,275.506226 3.435127,275.571075 0.999999,276.000000 
	C1.000000,271.643097 1.000000,267.286194 1.000000,262.464661 
z" data-index="17" style="opacity: 1;"></path>
<path fill="currentColor" opacity="1.000000" stroke="none" d="
M486.054260,133.600983 
	C483.635376,132.381271 480.771881,131.191620 478.771881,129.154312 
	C454.092133,104.013832 426.673187,82.223778 397.440643,62.693447 
	C361.870911,38.929226 323.860931,19.911011 283.755493,5.046980 
	C281.477783,4.202808 279.410858,2.789798 277.122925,1.320768 
	C281.356903,1.000000 285.713806,1.000000 290.535339,0.999999 
	C291.471405,1.654607 291.864960,2.793433 292.427124,2.883840 
	C295.645935,3.401506 298.904846,3.670061 302.668152,4.423154 
	C304.439606,5.819606 305.563843,7.075523 306.965851,7.773730 
	C328.961700,18.727867 351.459412,28.771908 372.910980,40.699154 
	C407.866364,60.134624 439.496979,84.365082 468.986450,111.383728 
	C470.343323,112.626907 472.389923,113.117271 474.115295,113.958260 
	C477.064392,118.562531 480.042572,123.148567 482.947845,127.780312 
	C484.054962,129.545288 484.994812,131.415131 486.054260,133.600983 
z" data-index="18" style="opacity: 1;"></path>
<path fill="currentColor" opacity="1.000000" stroke="none" d="
M0.999999,276.428467 
	C3.435127,275.571075 6.005887,275.506226 8.284555,274.657349 
	C32.892342,265.490051 58.239887,260.468445 84.497742,258.737122 
	C101.877548,257.591187 118.909859,259.129913 136.028473,261.065643 
	C137.253189,261.204132 138.403259,262.002441 139.730957,263.136841 
	C138.106720,266.513458 136.339554,269.247192 134.270340,271.646545 
	C127.483246,270.215729 121.029686,268.439178 114.507858,268.137299 
	C81.171501,266.594177 48.478260,270.176086 16.873178,281.523254 
	C12.351326,283.146729 7.737509,284.514069 3.166254,285.999939 
	C2.640463,284.442047 2.114669,282.884125 1.294437,281.663086 
	C1.000000,280.285645 1.000000,278.571289 0.999999,276.428467 
z" data-index="19" style="opacity: 1;"></path>
<path fill="currentColor" opacity="1.000000" stroke="none" d="
M85.955185,60.898636 
	C91.390060,56.674747 96.824936,52.450851 102.963722,48.251736 
	C104.969162,48.513695 106.261444,48.863094 107.573601,48.971016 
	C123.783661,50.304253 140.027496,51.303425 156.202072,52.974758 
	C185.278687,55.979267 213.631729,62.604313 241.363373,71.699226 
	C271.160736,81.471626 299.801910,93.896667 327.126740,109.452080 
	C361.306030,128.909576 392.471130,152.343842 420.770294,179.509720 
	C432.256836,190.536270 442.640778,202.741577 453.194031,214.703751 
	C473.655212,237.896530 490.349670,263.714020 505.413208,290.646393 
	C506.382935,292.380219 508.337250,293.563354 509.833557,295.002655 
	C508.812408,299.878693 507.791290,304.754700 506.091431,309.751556 
	C503.008484,306.380493 500.239777,303.083160 498.256073,299.366791 
	C476.815552,259.198853 449.974976,223.073380 417.544250,191.116760 
	C416.182190,189.774582 414.298370,188.961838 412.647522,187.505478 
	C412.332397,176.602295 405.682953,171.768723 394.961670,174.064880 
	C393.454681,172.275299 392.269806,170.615204 390.751709,169.357178 
	C369.977173,152.141510 348.197632,136.360779 324.814148,122.817604 
	C288.738556,101.923431 250.623199,86.000900 210.182632,75.866043 
	C171.971237,66.289848 133.202164,60.998184 93.701706,61.942356 
	C91.129318,62.003845 88.537804,61.265129 85.955185,60.898636 
z" data-index="20" style="opacity: 1;"></path>
<path fill="currentColor" opacity="1.000000" stroke="none" d="
M288.997528,495.833191 
	C288.293427,496.207733 287.609833,496.859009 286.882050,496.912903 
	C281.221588,497.331818 275.552612,497.635620 269.441833,497.485657 
	C268.318146,492.064972 267.850159,487.093689 266.926147,482.208710 
	C259.623993,443.604218 241.426590,410.867462 212.115555,384.885498 
	C186.920731,362.552185 157.371414,348.620819 123.776886,343.795685 
	C120.764832,343.363037 117.904091,341.876923 115.264572,340.691345 
	C117.865349,339.292389 120.332413,338.308289 122.453163,336.828033 
	C127.974266,332.974487 133.343430,328.903320 139.118683,325.079590 
	C141.012894,325.835175 142.522507,326.576385 144.116333,327.002594 
	C161.064560,331.534515 177.326813,337.684113 192.697403,346.283447 
	C212.992203,357.637634 230.176743,372.683472 245.293564,390.112793 
	C258.478455,405.314667 268.535400,422.568573 276.042999,441.226135 
	C283.095581,458.752869 287.986755,476.846680 288.997528,495.833191 
z" data-index="21" style="opacity: 1;"></path>
<path fill="currentColor" opacity="1.000000" stroke="none" d="
M329.000092,488.833038 
	C324.605011,489.879730 320.209930,490.926422 315.396637,491.491821 
	C313.032043,473.049194 308.771790,455.633789 302.724152,438.627350 
	C291.941193,408.304657 274.729980,381.936157 252.274658,359.167908 
	C238.834167,345.540161 223.537491,333.962799 206.769104,324.459259 
	C193.105988,316.715637 178.968353,310.165619 163.993057,305.642761 
	C169.418701,301.475830 174.662399,297.597778 180.016388,294.065369 
	C181.706451,295.534821 183.165421,296.911896 184.889084,297.733978 
	C189.691055,300.024231 194.681381,301.923798 199.458252,304.261780 
	C226.030502,317.267365 249.136169,334.749939 269.271729,356.541016 
	C288.175903,376.999451 302.541565,400.126709 313.219391,425.641998 
	C321.682251,445.864380 326.924835,466.973938 329.000092,488.833038 
z" data-index="22" style="opacity: 1;"></path>
<path fill="currentColor" opacity="1.000000" stroke="none" d="
M65.955444,418.112457 
	C61.696083,413.302948 57.436714,408.493439 53.346375,403.184143 
	C67.409523,395.933197 82.405556,393.219543 97.521492,393.316040 
	C108.677231,393.387268 120.088608,395.303345 130.907684,398.190308 
	C160.638931,406.123779 183.528687,423.791473 199.924194,449.817902 
	C208.644470,463.660522 213.946869,478.826172 216.996170,494.833069 
	C210.122925,493.819336 203.249680,492.805573 196.175476,491.019714 
	C195.601379,487.626099 195.567398,484.900391 194.799286,482.400238 
	C190.277908,467.683777 182.630493,454.645477 171.997131,443.618805 
	C150.882889,421.723602 124.750328,411.151825 94.468193,412.268524 
	C84.905113,412.621216 75.456467,416.076904 65.955444,418.112457 
z" data-index="23" style="opacity: 1;"></path>
<path fill="currentColor" opacity="1.000000" stroke="none" d="
M163.811111,305.931610 
	C178.968353,310.165619 193.105988,316.715637 206.769104,324.459259 
	C223.537491,333.962799 238.834167,345.540161 252.274658,359.167908 
	C274.729980,381.936157 291.941193,408.304657 302.724152,438.627350 
	C308.771790,455.633789 313.032043,473.049194 314.989319,491.421783 
	C310.604401,492.871307 306.208649,493.909607 301.396332,494.483490 
	C297.246521,465.041718 289.424927,437.432220 274.560089,411.986877 
	C254.855820,378.257446 228.308929,351.599915 193.414490,333.915192 
	C179.669785,326.949310 164.985443,321.837494 150.910065,315.590607 
	C155.331116,312.177094 159.571106,309.054352 163.811111,305.931610 
z" data-index="24" style="opacity: 1;"></path>
<path fill="currentColor" opacity="1.000000" stroke="none" d="
M329.377319,488.773804 
	C326.924835,466.973938 321.682251,445.864380 313.219391,425.641998 
	C302.541565,400.126709 288.175903,376.999451 269.271729,356.541016 
	C249.136169,334.749939 226.030502,317.267365 199.458252,304.261780 
	C194.681381,301.923798 189.691055,300.024231 184.889084,297.733978 
	C183.165421,296.911896 181.706451,295.534821 180.190308,293.789856 
	C183.515137,290.782715 186.776321,288.396759 190.329910,286.191528 
	C198.794601,290.438141 207.067688,294.314880 215.119537,298.606720 
	C235.953110,309.711548 254.705475,323.772827 271.376953,340.397919 
	C284.219666,353.204865 295.268372,367.575165 305.008209,382.944519 
	C324.854095,414.261047 336.629822,448.377655 341.041779,485.114258 
	C337.279358,486.314362 333.516937,487.514465 329.377319,488.773804 
z" data-index="25" style="opacity: 1;"></path>
<path fill="currentColor" opacity="1.000000" stroke="none" d="
M414.041626,448.114655 
	C408.392639,452.056946 402.743622,455.999268 396.642853,459.455292 
	C387.900360,413.196838 369.978302,371.548126 342.468475,334.061005 
	C338.567535,328.745270 333.977386,323.935364 329.865601,318.586060 
	C333.989624,312.788422 337.954285,307.296051 342.092041,302.102905 
	C344.034821,304.388489 345.901123,306.297607 347.559387,308.373047 
	C365.294525,330.569580 380.542145,354.307220 392.164185,380.303741 
	C401.917053,402.119293 409.414856,424.650940 414.041626,448.114655 
z" data-index="26" style="opacity: 1;"></path>
<path fill="currentColor" opacity="1.000000" stroke="none" d="
M414.395599,448.059509 
	C409.414856,424.650940 401.917053,402.119293 392.164185,380.303741 
	C380.542145,354.307220 365.294525,330.569580 347.559387,308.373047 
	C345.901123,306.297607 344.034821,304.388489 342.163208,301.769623 
	C345.335693,296.079468 348.610046,291.021820 352.178040,286.135986 
	C355.062714,289.097870 357.765869,291.792816 360.227570,294.692688 
	C387.573700,326.906128 407.563721,363.279938 421.171539,403.195496 
	C424.763855,413.732819 427.771179,424.469604 431.047150,435.114777 
	C425.614624,439.411316 420.182098,443.707855 414.395599,448.059509 
z" data-index="27" style="opacity: 1;"></path>
<path fill="currentColor" opacity="1.000000" stroke="none" d="
M329.706207,318.891327 
	C333.977386,323.935364 338.567535,328.745270 342.468475,334.061005 
	C369.978302,371.548126 387.900360,413.196838 396.252075,459.439453 
	C390.466583,463.273956 384.620117,466.638000 378.323486,469.659241 
	C377.609039,468.184143 377.282501,467.062286 377.089417,465.917938 
	C368.983887,417.868927 349.726257,374.818359 319.349976,336.710449 
	C317.241364,334.065155 315.769073,330.912598 314.280823,327.776520 
	C319.609222,324.668518 324.657715,321.779907 329.706207,318.891327 
z" data-index="28" style="opacity: 1;"></path>
<path fill="currentColor" opacity="1.000000" stroke="none" d="
M150.729004,315.881348 
	C164.985443,321.837494 179.669785,326.949310 193.414490,333.915192 
	C228.308929,351.599915 254.855820,378.257446 274.560089,411.986877 
	C289.424927,437.432220 297.246521,465.041718 300.990417,494.426025 
	C297.290680,495.213745 293.580292,495.594574 289.433716,495.904297 
	C287.986755,476.846680 283.095581,458.752869 276.042999,441.226135 
	C268.535400,422.568573 258.478455,405.314667 245.293564,390.112793 
	C230.176743,372.683472 212.992203,357.637634 192.697403,346.283447 
	C177.326813,337.684113 161.064560,331.534515 144.116333,327.002594 
	C142.522507,326.576385 141.012894,325.835175 139.300903,324.789062 
	C143.001404,321.519043 146.865204,318.700195 150.729004,315.881348 
z" data-index="29" style="opacity: 1;"></path>
<path fill="currentColor" opacity="1.000000" stroke="none" d="
M341.431213,485.063965 
	C336.629822,448.377655 324.854095,414.261047 305.008209,382.944519 
	C295.268372,367.575165 284.219666,353.204865 271.376953,340.397919 
	C254.705475,323.772827 235.953110,309.711548 215.119537,298.606720 
	C207.067688,294.314880 198.794601,290.438141 190.505783,285.908875 
	C193.448380,283.226288 196.507492,281.007080 199.909119,278.951172 
	C208.964050,283.640045 217.872864,287.827515 226.352448,292.753815 
	C252.889618,308.170868 276.207886,327.511780 295.558044,351.404877 
	C317.163910,378.083313 333.433441,407.723907 342.620636,440.868561 
	C346.334778,454.268005 348.260742,468.163147 351.000427,481.832703 
	C347.940491,482.893005 344.880585,483.953339 341.431213,485.063965 
z" data-index="30" style="opacity: 1;"></path>
<path fill="currentColor" opacity="1.000000" stroke="none" d="
M351.368164,481.782562 
	C348.260742,468.163147 346.334778,454.268005 342.620636,440.868561 
	C333.433441,407.723907 317.163910,378.083313 295.558044,351.404877 
	C276.207886,327.511780 252.889618,308.170868 226.352448,292.753815 
	C217.872864,287.827515 208.964050,283.640045 200.115326,278.659698 
	C207.863007,272.224243 213.866302,272.064789 221.772079,277.956146 
	C239.130020,290.891144 256.314941,304.061005 273.788422,316.836853 
	C279.513519,321.022766 285.911621,324.288239 292.024994,328.335999 
	C295.805054,333.466797 299.504364,338.283051 303.328644,342.997894 
	C325.561584,370.408386 342.660156,400.666504 352.527466,434.611938 
	C356.634949,448.742432 358.898468,463.408905 362.000458,477.831665 
	C358.578918,479.131897 355.157379,480.432159 351.368164,481.782562 
z" data-index="31" style="opacity: 1;"></path>
<path fill="currentColor" opacity="1.000000" stroke="none" d="
M362.357147,477.791809 
	C358.898468,463.408905 356.634949,448.742432 352.527466,434.611938 
	C342.660156,400.666504 325.561584,370.408386 303.328644,342.997894 
	C299.504364,338.283051 295.805054,333.466797 292.447144,328.334747 
	C299.897797,327.980042 306.949341,327.987976 314.000916,327.995911 
	C315.769073,330.912598 317.241364,334.065155 319.349976,336.710449 
	C349.726257,374.818359 368.983887,417.868927 377.089417,465.917938 
	C377.282501,467.062286 377.609039,468.184143 377.956726,469.716003 
	C372.931366,472.661011 367.822601,475.206482 362.357147,477.791809 
z" data-index="32" style="opacity: 1;"></path>
<path fill="currentColor" opacity="1.000000" stroke="none" d="
M40.901485,387.086853 
	C39.329639,384.622375 37.757801,382.157898 36.372288,379.213013 
	C63.348415,366.867737 91.154190,362.314056 120.285461,366.906647 
	C159.014664,373.012421 190.662079,391.345306 214.968628,422.051453 
	C232.558197,444.272095 242.090378,469.937286 245.999557,497.833313 
	C242.611481,497.548279 239.223389,497.263245 235.417755,496.471283 
	C234.912201,493.971222 235.072021,491.930450 234.699631,489.991943 
	C226.884262,449.309692 206.073410,417.295959 170.601120,395.483612 
	C141.567596,377.630524 109.959320,371.032410 76.321548,377.067017 
	C64.302505,379.223236 52.696190,383.680115 40.901485,387.086853 
z" data-index="33" style="opacity: 1;"></path>
<path fill="currentColor" opacity="1.000000" stroke="none" d="
M114.973083,340.880066 
	C117.904091,341.876923 120.764832,343.363037 123.776886,343.795685 
	C157.371414,348.620819 186.920731,362.552185 212.115555,384.885498 
	C241.426590,410.867462 259.623993,443.604218 266.926147,482.208710 
	C267.850159,487.093689 268.318146,492.064972 269.000916,497.414612 
	C266.629761,497.880463 264.255127,497.927948 261.520538,497.542938 
	C261.319824,495.968933 261.745117,494.792236 261.599640,493.690948 
	C257.000336,458.867401 243.286957,428.037659 219.515472,402.214966 
	C194.527618,375.071014 163.587967,358.134644 127.116699,351.501129 
	C98.972153,346.382050 71.445747,348.748749 44.531853,358.107117 
	C38.988548,360.034607 33.891682,363.246002 28.589043,365.865631 
	C26.806126,362.478394 25.023214,359.091156 23.550947,355.271118 
	C49.938290,343.244904 77.256088,337.705780 106.120697,338.163269 
	C109.299263,339.147339 112.136177,340.013702 114.973083,340.880066 
z" data-index="34" style="opacity: 1;"></path>
<path fill="currentColor" opacity="1.000000" stroke="none" d="
M246.445053,497.904510 
	C242.090378,469.937286 232.558197,444.272095 214.968628,422.051453 
	C190.662079,391.345306 159.014664,373.012421 120.285461,366.906647 
	C91.154190,362.314056 63.348415,366.867737 36.232605,378.893158 
	C34.679832,376.948303 33.453075,374.842834 32.332275,372.168549 
	C34.181267,370.634796 35.843388,369.466553 37.679604,368.735840 
	C60.833496,359.521912 84.579460,354.633087 109.764252,356.818329 
	C139.365967,359.386841 166.322418,368.647919 190.243500,386.221100 
	C217.148026,405.985931 236.645660,431.453033 246.819382,463.422974 
	C250.384598,474.626282 252.319885,486.348297 254.999451,497.833435 
	C252.296478,497.880859 249.593521,497.928284 246.445053,497.904510 
z" data-index="35" style="opacity: 1;"></path>
<path fill="currentColor" opacity="1.000000" stroke="none" d="
M41.047012,387.396545 
	C52.696190,383.680115 64.302505,379.223236 76.321548,377.067017 
	C109.959320,371.032410 141.567596,377.630524 170.601120,395.483612 
	C206.073410,417.295959 226.884262,449.309692 234.699631,489.991943 
	C235.072021,491.930450 234.912201,493.971222 235.000336,496.398865 
	C231.914383,496.630951 228.828339,496.428589 225.371201,495.595245 
	C224.421722,490.695862 224.304550,486.303131 223.193207,482.178284 
	C212.681290,443.162354 189.388489,414.651367 152.933655,396.920990 
	C127.410240,384.507294 100.634018,382.242371 73.143509,387.217957 
	C64.211388,388.834595 55.628250,392.379425 46.885490,395.042297 
	C44.987839,392.596954 43.090187,390.151611 41.047012,387.396545 
z" data-index="36" style="opacity: 1;"></path>
<path fill="currentColor" opacity="1.000000" stroke="none" d="
M66.089714,418.420898 
	C75.456467,416.076904 84.905113,412.621216 94.468193,412.268524 
	C124.750328,411.151825 150.882889,421.723602 171.997131,443.618805 
	C182.630493,454.645477 190.277908,467.683777 194.799286,482.400238 
	C195.567398,484.900391 195.601379,487.626099 195.966370,490.681213 
	C190.579086,490.068970 185.199982,489.023132 179.401886,487.518982 
	C174.860565,469.912140 164.291122,457.082428 151.135193,446.146606 
	C138.052734,435.271942 122.642319,429.623016 105.865471,428.246033 
	C96.853981,427.506439 87.577278,426.960663 78.955345,431.112396 
	C74.711563,426.984711 70.467773,422.857056 66.089714,418.420898 
z" data-index="37" style="opacity: 1;"></path>
<path fill="currentColor" opacity="1.000000" stroke="none" d="
M255.423813,497.904572 
	C252.319885,486.348297 250.384598,474.626282 246.819382,463.422974 
	C236.645660,431.453033 217.148026,405.985931 190.243500,386.221100 
	C166.322418,368.647919 139.365967,359.386841 109.764252,356.818329 
	C84.579460,354.633087 60.833496,359.521912 37.679604,368.735840 
	C35.843388,369.466553 34.181267,370.634796 32.196167,371.851837 
	C30.940802,370.213867 29.927504,368.323761 28.751625,366.149658 
	C33.891682,363.246002 38.988548,360.034607 44.531853,358.107117 
	C71.445747,348.748749 98.972153,346.382050 127.116699,351.501129 
	C163.587967,358.134644 194.527618,375.071014 219.515472,402.214966 
	C243.286957,428.037659 257.000336,458.867401 261.599640,493.690948 
	C261.745117,494.792236 261.319824,495.968933 261.080750,497.471802 
	C259.283295,497.880676 257.565735,497.928192 255.423813,497.904572 
z" data-index="38" style="opacity: 1;"></path>
<path fill="currentColor" opacity="1.000000" stroke="none" d="
M509.904907,294.586426 
	C508.337250,293.563354 506.382935,292.380219 505.413208,290.646393 
	C490.349670,263.714020 473.655212,237.896530 453.194031,214.703751 
	C442.640778,202.741577 432.256836,190.536270 420.770294,179.509720 
	C392.471130,152.343842 361.306030,128.909576 327.126740,109.452080 
	C299.801910,93.896667 271.160736,81.471626 241.363373,71.699226 
	C213.631729,62.604313 185.278687,55.979267 156.202072,52.974758 
	C140.027496,51.303425 123.783661,50.304253 107.573601,48.971016 
	C106.261444,48.863094 104.969162,48.513695 103.280373,48.114304 
	C104.682571,46.709625 106.472038,45.467152 108.572678,44.091507 
	C116.135498,44.633427 123.374451,45.530975 130.640961,45.945705 
	C165.030457,47.908470 198.653748,54.223831 231.581085,64.103569 
	C260.513489,72.784637 288.463623,83.972343 315.260223,98.058830 
	C344.849548,113.613441 372.712555,131.705841 397.989258,153.584351 
	C410.930969,164.786163 423.844604,176.137146 435.705536,188.447250 
	C462.820648,216.589203 486.233276,247.629578 505.411591,281.769653 
	C506.713898,284.088013 508.264282,286.267059 509.874512,288.809235 
	C510.025208,290.795135 510.000732,292.482666 509.904907,294.586426 
z" data-index="39" style="opacity: 1;"></path>
<path fill="currentColor" opacity="1.000000" stroke="none" d="
M46.942104,395.392059 
	C55.628250,392.379425 64.211388,388.834595 73.143509,387.217957 
	C100.634018,382.242371 127.410240,384.507294 152.933655,396.920990 
	C189.388489,414.651367 212.681290,443.162354 223.193207,482.178284 
	C224.304550,486.303131 224.421722,490.695862 225.000214,495.398804 
	C222.576111,495.625336 220.151901,495.417358 217.361938,495.021240 
	C213.946869,478.826172 208.644470,463.660522 199.924194,449.817902 
	C183.528687,423.791473 160.638931,406.123779 130.907684,398.190308 
	C120.088608,395.303345 108.677231,393.387268 97.521492,393.316040 
	C82.405556,393.219543 67.409523,395.933197 53.204636,402.866913 
	C50.928818,400.613617 48.963768,398.177734 46.942104,395.392059 
z" data-index="40" style="opacity: 1;"></path>
<path fill="currentColor" opacity="1.000000" stroke="none" d="
M79.088013,431.419281 
	C87.577278,426.960663 96.853981,427.506439 105.865471,428.246033 
	C122.642319,429.623016 138.052734,435.271942 151.135193,446.146606 
	C164.291122,457.082428 174.860565,469.912140 178.991226,487.447296 
	C173.602783,489.228210 168.206024,490.622498 162.392853,491.677551 
	C156.971344,474.689026 146.104050,462.695038 131.346161,454.297699 
	C118.025772,446.718231 103.499268,443.878448 88.166809,446.001740 
	C85.184769,441.243225 82.202728,436.484680 79.088013,431.419281 
z" data-index="41" style="opacity: 1;"></path>
<path fill="currentColor" opacity="1.000000" stroke="none" d="
M501.040833,328.114594 
	C499.614502,332.635559 498.188171,337.156555 496.107391,341.749573 
	C494.017212,339.640167 492.365448,337.569214 491.183411,335.257996 
	C486.186218,325.486908 481.482056,315.564117 476.392761,305.842316 
	C458.045135,270.793732 433.808228,240.053818 406.771912,211.407562 
	C405.271149,209.817429 402.859222,209.087250 401.004272,207.638184 
	C403.406525,203.823532 405.675903,200.327499 408.169006,197.086960 
	C418.768188,208.556808 429.463928,219.494354 439.447296,231.047501 
	C456.250092,250.492310 470.541077,271.761322 483.044647,294.197266 
	C489.273804,305.374634 495.056305,316.800903 501.040833,328.114594 
z" data-index="42" style="opacity: 1;"></path>
<path fill="currentColor" opacity="1.000000" stroke="none" d="
M486.617310,363.742828 
	C484.655090,367.404663 482.692871,371.066498 480.124939,374.691223 
	C478.516266,372.777649 477.427429,370.941498 476.523651,369.018372 
	C467.964111,350.804016 460.019714,332.271576 450.749054,314.427795 
	C439.520111,292.814911 425.168671,273.140015 409.543854,254.483643 
	C402.415558,245.972321 394.494293,238.125153 387.076141,229.666840 
	C389.069855,226.546356 390.920166,223.735764 393.072998,221.094360 
	C400.975800,229.376251 408.845184,237.255463 416.126068,245.645355 
	C438.265564,271.157043 456.346771,299.400146 471.248199,329.659760 
	C476.750885,340.833832 481.515869,352.371155 486.617310,363.742828 
z" data-index="43" style="opacity: 1;"></path>
<path fill="currentColor" opacity="1.000000" stroke="none" d="
M501.378296,327.918945 
	C495.056305,316.800903 489.273804,305.374634 483.044647,294.197266 
	C470.541077,271.761322 456.250092,250.492310 439.447296,231.047501 
	C429.463928,219.494354 418.768188,208.556808 408.274811,196.766541 
	C409.657135,193.427902 411.157379,190.665176 412.657623,187.902451 
	C414.298370,188.961838 416.182190,189.774582 417.544250,191.116760 
	C449.974976,223.073380 476.815552,259.198853 498.256073,299.366791 
	C500.239777,303.083160 503.008484,306.380493 505.754364,309.958923 
	C504.635925,315.938080 503.175812,321.830719 501.378296,327.918945 
z" data-index="44" style="opacity: 1;"></path>
<path fill="currentColor" opacity="1.000000" stroke="none" d="
M469.112640,392.042908 
	C466.987091,395.286652 464.861542,398.530396 462.124084,401.701233 
	C461.062012,400.948547 460.428040,400.327698 460.188293,399.580353 
	C452.765564,376.440918 443.560303,354.088745 431.929718,332.696930 
	C418.464661,307.930969 402.431000,284.999268 384.059082,263.685303 
	C380.665680,259.748505 376.504059,256.473938 372.801514,252.557861 
	C374.682648,249.484009 376.459290,246.746002 378.553864,244.094818 
	C379.685791,244.739273 380.668243,245.152679 381.288116,245.876526 
	C388.838562,254.693817 396.608337,263.341492 403.797333,272.446777 
	C428.798828,304.112488 448.418793,338.841949 462.481445,376.695953 
	C464.419464,381.912811 466.889099,386.932129 469.112640,392.042908 
z" data-index="45" style="opacity: 1;"></path>
<path fill="currentColor" opacity="1.000000" stroke="none" d="
M469.426117,391.906494 
	C466.889099,386.932129 464.419464,381.912811 462.481445,376.695953 
	C448.418793,338.841949 428.798828,304.112488 403.797333,272.446777 
	C396.608337,263.341492 388.838562,254.693817 381.288116,245.876526 
	C380.668243,245.152679 379.685791,244.739273 378.646423,243.776474 
	C380.279907,240.578720 382.138824,237.786133 384.171844,235.277008 
	C390.529663,242.501053 396.843567,249.330627 402.872650,256.403046 
	C420.729584,277.350128 436.669159,299.726318 448.945374,324.348969 
	C458.498901,343.510590 466.406769,363.492676 475.046021,383.110107 
	C473.277222,385.996765 471.508392,388.883423 469.426117,391.906494 
z" data-index="46" style="opacity: 1;"></path>
<path fill="currentColor" opacity="1.000000" stroke="none" d="
M431.355652,434.979828 
	C427.771179,424.469604 424.763855,413.732819 421.171539,403.195496 
	C407.563721,363.279938 387.573700,326.906128 360.227570,294.692688 
	C357.765869,291.792816 355.062714,289.097870 352.255188,285.797272 
	C353.629211,282.836304 355.219757,280.385864 357.109680,278.106201 
	C359.675568,280.473877 362.283661,282.415161 364.151550,284.910492 
	C374.005707,298.074615 384.167694,311.047668 393.301636,324.703247 
	C411.753632,352.289703 424.846436,382.441986 434.326691,414.208832 
	C435.629333,418.573853 437.504395,422.768127 439.114441,427.041443 
	C436.631012,429.642578 434.147583,432.243744 431.355652,434.979828 
z" data-index="47" style="opacity: 1;"></path>
<path fill="currentColor" opacity="1.000000" stroke="none" d="
M400.871399,207.956818 
	C402.859222,209.087250 405.271149,209.817429 406.771912,211.407562 
	C433.808228,240.053818 458.045135,270.793732 476.392761,305.842316 
	C481.482056,315.564117 486.186218,325.486908 491.183411,335.257996 
	C492.365448,337.569214 494.017212,339.640167 495.784241,341.932037 
	C494.659393,345.930328 493.203278,349.818237 491.136658,353.685699 
	C487.414429,347.461731 484.091553,341.353882 481.229370,335.037262 
	C471.535461,313.643005 460.029419,293.258240 446.458801,274.128906 
	C437.255188,261.155396 427.478088,248.551041 417.341766,236.290604 
	C411.033752,228.660675 403.577332,221.980209 396.750031,214.545044 
	C398.199646,212.129929 399.535522,210.043365 400.871399,207.956818 
z" data-index="48" style="opacity: 1;"></path>
<path fill="currentColor" opacity="1.000000" stroke="none" d="
M88.095810,446.464478 
	C103.499268,443.878448 118.025772,446.718231 131.346161,454.297699 
	C146.104050,462.695038 156.971344,474.689026 162.008606,491.727661 
	C157.285690,494.412262 152.530640,496.707550 147.405853,499.060852 
	C142.946350,482.864105 132.455658,472.283417 117.326431,465.995087 
	C108.236305,462.216827 98.750404,461.210693 88.594284,463.013458 
	C88.120422,457.653412 88.072617,452.290314 88.095810,446.464478 
z" data-index="49" style="opacity: 1;"></path>
<path fill="currentColor" opacity="1.000000" stroke="none" d="
M451.116730,415.040833 
	C448.963806,417.309906 446.810852,419.578979 444.272125,421.605164 
	C442.485016,416.752106 441.121185,412.130096 439.676392,407.533569 
	C429.854095,376.285248 416.257080,346.758972 398.430206,319.291779 
	C387.405060,302.304413 375.736694,285.724915 360.951263,271.390594 
	C362.318817,269.034760 363.615356,267.002808 365.203003,265.143677 
	C368.312958,268.356506 371.177673,271.355469 373.943176,274.443268 
	C392.476532,295.136871 407.781586,318.067383 420.754425,342.569336 
	C432.319397,364.412201 441.747498,387.144897 448.564545,410.936981 
	C448.991333,412.426422 450.246796,413.678375 451.116730,415.040833 
z" data-index="50" style="opacity: 1;"></path>
<path fill="currentColor" opacity="1.000000" stroke="none" d="
M372.696960,252.893707 
	C376.504059,256.473938 380.665680,259.748505 384.059082,263.685303 
	C402.431000,284.999268 418.464661,307.930969 431.929718,332.696930 
	C443.560303,354.088745 452.765564,376.440918 460.188293,399.580353 
	C460.428040,400.327698 461.062012,400.948547 461.809570,401.838684 
	C460.295227,404.310577 458.483490,406.572144 456.201630,408.640259 
	C454.716339,405.810883 453.557739,403.220276 452.707550,400.532196 
	C439.893494,360.018219 420.847595,322.694519 394.889648,289.050262 
	C386.806610,278.573792 377.591766,268.970612 368.971436,258.639221 
	C370.264221,256.505096 371.480591,254.699387 372.696960,252.893707 
z" data-index="51" style="opacity: 1;"></path>
<path fill="currentColor" opacity="1.000000" stroke="none" d="
M368.895020,258.967651 
	C377.591766,268.970612 386.806610,278.573792 394.889648,289.050262 
	C420.847595,322.694519 439.893494,360.018219 452.707550,400.532196 
	C453.557739,403.220276 454.716339,405.810883 455.890533,408.776733 
	C454.614319,410.994202 453.179077,412.881683 451.430298,414.905029 
	C450.246796,413.678375 448.991333,412.426422 448.564545,410.936981 
	C441.747498,387.144897 432.319397,364.412201 420.754425,342.569336 
	C407.781586,318.067383 392.476532,295.136871 373.943176,274.443268 
	C371.177673,271.355469 368.312958,268.356506 365.336060,264.838654 
	C366.416992,262.563110 367.656006,260.765381 368.895020,258.967651 
z" data-index="52" style="opacity: 1;"></path>
<path fill="currentColor" opacity="1.000000" stroke="none" d="
M360.880219,271.714447 
	C375.736694,285.724915 387.405060,302.304413 398.430206,319.291779 
	C416.257080,346.758972 429.854095,376.285248 439.676392,407.533569 
	C441.121185,412.130096 442.485016,416.752106 443.964111,421.739197 
	C442.598114,423.677460 441.154327,425.238800 439.412476,426.920776 
	C437.504395,422.768127 435.629333,418.573853 434.326691,414.208832 
	C424.846436,382.441986 411.753632,352.289703 393.301636,324.703247 
	C384.167694,311.047668 374.005707,298.074615 364.151550,284.910492 
	C362.283661,282.415161 359.675568,280.473877 357.225586,277.785065 
	C358.321533,275.433624 359.600891,273.574036 360.880219,271.714447 
z" data-index="53" style="opacity: 1;"></path>
<path fill="currentColor" opacity="1.000000" stroke="none" d="
M396.636292,214.873627 
	C403.577332,221.980209 411.033752,228.660675 417.341766,236.290604 
	C427.478088,248.551041 437.255188,261.155396 446.458801,274.128906 
	C460.029419,293.258240 471.535461,313.643005 481.229370,335.037262 
	C484.091553,341.353882 487.414429,347.461731 490.816589,353.857910 
	C489.725983,357.069916 488.344940,360.089355 486.790588,363.425812 
	C481.515869,352.371155 476.750885,340.833832 471.248199,329.659760 
	C456.346771,299.400146 438.265564,271.157043 416.126068,245.645355 
	C408.845184,237.255463 400.975800,229.376251 393.185608,220.777283 
	C394.209229,218.485229 395.422760,216.679428 396.636292,214.873627 
z" data-index="54" style="opacity: 1;"></path>
<path fill="currentColor" opacity="1.000000" stroke="none" d="
M475.364044,382.966187 
	C466.406769,363.492676 458.498901,343.510590 448.945374,324.348969 
	C436.669159,299.726318 420.729584,277.350128 402.872650,256.403046 
	C396.843567,249.330627 390.529663,242.501053 384.241608,234.951355 
	C385.069061,232.887054 386.000885,231.431885 386.932709,229.976746 
	C394.494293,238.125153 402.415558,245.972321 409.543854,254.483643 
	C425.168671,273.140015 439.520111,292.814911 450.749054,314.427795 
	C460.019714,332.271576 467.964111,350.804016 476.523651,369.018372 
	C477.427429,370.941498 478.516266,372.777649 479.814270,374.850891 
	C478.633575,377.639160 477.157837,380.230713 475.364044,382.966187 
z" data-index="55" style="opacity: 1;"></path>
<path fill="currentColor" opacity="1.000000" stroke="none" d="
M510.756409,209.610901 
	C508.633240,208.126160 505.996063,206.576416 504.308411,204.317337 
	C486.740051,180.800247 467.057098,159.139175 445.558685,139.253250 
	C416.304626,112.193329 384.268890,88.844109 349.523315,69.142181 
	C300.715149,41.466248 248.735046,22.699793 193.781235,11.859737 
	C191.896286,11.487918 190.133438,10.497054 188.157425,9.480812 
	C194.677536,7.775451 201.353897,6.384007 208.458801,4.973115 
	C220.585205,8.224380 232.324677,11.354085 243.973206,14.792022 
	C280.183411,25.479101 314.946014,39.644142 348.034882,57.923996 
	C376.671844,73.744400 403.717682,91.900864 428.918793,112.717621 
	C450.610413,130.635529 470.977844,149.970016 489.185730,171.512878 
	C494.289368,177.551285 500.000458,183.076248 505.776489,188.898560 
	C507.641083,195.712463 509.162140,202.464523 510.756409,209.610901 
z" data-index="56" style="opacity: 1;"></path>
<path fill="currentColor" opacity="1.000000" stroke="none" d="
M474.060059,113.600815 
	C472.389923,113.117271 470.343323,112.626907 468.986450,111.383728 
	C439.496979,84.365082 407.866364,60.134624 372.910980,40.699154 
	C351.459412,28.771908 328.961700,18.727867 306.965851,7.773730 
	C305.563843,7.075523 304.439606,5.819606 303.092926,4.495171 
	C319.232391,8.420940 335.703705,11.938138 351.641724,17.101446 
	C375.401367,24.798666 396.818695,37.151989 416.854889,52.145351 
	C431.090424,62.797974 444.175598,74.557640 455.504822,88.166321 
	C462.139374,96.135818 467.868439,104.859154 474.060059,113.600815 
z" data-index="57" style="opacity: 1;"></path>
<path fill="currentColor" opacity="1.000000" stroke="none" d="
M24.166195,141.999435 
	C26.063745,138.214066 27.961294,134.428711 30.448706,130.321762 
	C33.031223,129.911163 35.038284,129.945007 37.014198,129.713242 
	C50.032276,128.186386 63.008446,125.742180 76.064201,125.207848 
	C107.683784,123.913765 139.224152,125.244331 170.403198,131.354111 
	C222.483627,141.559662 270.768433,161.084167 314.876862,190.651947 
	C325.085449,197.495239 334.783691,205.099869 344.492218,212.621613 
	C341.379303,214.992020 338.490997,217.094971 335.268494,219.033585 
	C327.720398,213.530533 320.641449,207.997192 313.269440,202.886536 
	C280.048431,179.855942 244.014786,162.760086 205.256516,151.156876 
	C163.364166,138.615402 120.562447,134.492737 77.077477,136.120682 
	C68.645660,136.436325 60.251343,137.818802 51.846329,138.767609 
	C42.615643,139.809647 33.392578,140.919266 24.166195,141.999435 
z" data-index="58" style="opacity: 1;"></path>
<path fill="currentColor" opacity="1.000000" stroke="none" d="
M344.716797,212.354156 
	C334.783691,205.099869 325.085449,197.495239 314.876862,190.651947 
	C270.768433,161.084167 222.483627,141.559662 170.403198,131.354111 
	C139.224152,125.244331 107.683784,123.913765 76.064201,125.207848 
	C63.008446,125.742180 50.032276,128.186386 37.014198,129.713242 
	C35.038284,129.945007 33.031223,129.911163 30.602665,130.000427 
	C32.198830,126.094849 34.230892,122.189003 37.033657,118.129761 
	C40.294201,117.875870 42.793152,117.877937 45.272373,117.657799 
	C58.654057,116.469582 72.009262,114.591423 85.413872,114.135628 
	C112.371834,113.218979 139.191833,115.213058 165.799347,119.865044 
	C229.223083,130.953873 286.751007,155.620361 338.185211,194.423538 
	C343.065948,198.105652 348.150085,201.518188 353.050049,205.391525 
	C350.212463,207.936157 347.464630,210.145157 344.716797,212.354156 
z" data-index="59" style="opacity: 1;"></path>
<path fill="currentColor" opacity="1.000000" stroke="none" d="
M63.959843,81.878883 
	C66.732391,78.991615 69.504936,76.104340 73.058105,73.096558 
	C99.448448,73.180573 125.051056,72.467888 150.593399,75.817131 
	C177.575653,79.355179 204.090729,84.705795 230.046219,92.853485 
	C258.904999,101.912544 286.961090,113.098541 312.860260,128.702621 
	C333.634857,141.219193 353.418182,155.401993 373.409515,169.181824 
	C378.083649,172.403671 381.819733,176.986420 385.802917,181.222504 
	C383.365936,183.150681 381.113464,184.799377 378.514343,186.261414 
	C376.391357,184.572021 374.637573,183.041656 372.835327,181.570679 
	C344.598236,158.523712 314.123108,139.048828 281.111694,123.503571 
	C251.132599,109.386276 220.013046,98.532654 187.541718,92.232010 
	C167.527130,88.348419 147.158951,85.669411 126.823631,84.236832 
	C107.978035,82.909195 88.964577,84.020142 70.026550,83.868195 
	C67.999123,83.851929 65.981834,82.572403 63.959843,81.878883 
z" data-index="60" style="opacity: 1;"></path>
<path fill="currentColor" opacity="1.000000" stroke="none" d="
M10.841509,176.961533 
	C11.970715,173.084000 13.099919,169.206451 14.973716,165.143707 
	C23.555853,163.453156 31.334461,161.397644 39.242516,160.550491 
	C59.207901,158.411728 79.202362,156.010788 99.242035,155.285294 
	C112.764977,154.795731 126.534775,156.038269 139.925797,158.182175 
	C160.085632,161.409744 180.295288,165.056839 199.972153,170.407104 
	C233.441772,179.507690 264.515503,194.462646 293.514679,213.483154 
	C302.078979,219.100464 309.884155,225.875229 317.886353,232.422119 
	C315.505676,234.186478 313.275848,235.648270 310.860352,236.824005 
	C290.922241,220.824905 269.358215,208.067642 246.517975,197.435715 
	C243.867188,196.201797 240.830124,195.797653 237.647903,194.908325 
	C227.645340,186.679977 216.471436,183.646439 203.886276,184.692047 
	C201.939087,183.339737 200.219711,181.950180 198.259445,181.357727 
	C172.834641,173.673645 146.827560,168.564743 120.351067,167.266006 
	C93.928581,165.969894 67.434738,166.492920 41.254368,171.425278 
	C31.128485,173.332993 20.979805,175.119705 10.841509,176.961533 
z" data-index="61"></path>
<path fill="currentColor" opacity="1.000000" stroke="none" d="
M353.139801,205.055878 
	C348.150085,201.518188 343.065948,198.105652 338.185211,194.423538 
	C286.751007,155.620361 229.223083,130.953873 165.799347,119.865044 
	C139.191833,115.213058 112.371834,113.218979 85.413872,114.135628 
	C72.009262,114.591423 58.654057,116.469582 45.272373,117.657799 
	C42.793152,117.877937 40.294201,117.875870 37.344395,117.967865 
	C39.008339,114.718773 41.132240,111.478172 44.015083,108.106476 
	C55.344807,106.985947 65.900902,105.376617 76.489189,105.125824 
	C105.754639,104.432610 134.953033,105.011932 163.977539,109.908134 
	C201.808243,116.289886 238.068237,127.418777 272.716431,143.857864 
	C297.445099,155.590561 320.966553,169.356903 342.761719,185.940857 
	C348.777649,190.518387 354.260254,195.796890 359.765198,201.017578 
	C357.408478,202.539566 355.274139,203.797714 353.139801,205.055878 
z" data-index="62" style="opacity: 1;"></path>
<path fill="currentColor" opacity="1.000000" stroke="none" d="
M10.505066,177.160477 
	C20.979805,175.119705 31.128485,173.332993 41.254368,171.425278 
	C67.434738,166.492920 93.928581,165.969894 120.351067,167.266006 
	C146.827560,168.564743 172.834641,173.673645 198.259445,181.357727 
	C200.219711,181.950180 201.939087,183.339737 203.534943,184.840286 
	C196.545029,186.933319 190.197601,189.362061 184.870789,194.098297 
	C181.968475,192.862915 179.402679,191.444427 176.679230,191.006622 
	C157.361084,187.901154 138.100311,183.629196 118.649147,182.353638 
	C90.624191,180.515823 62.524082,181.968216 34.857067,187.786560 
	C25.281582,189.800278 15.729283,191.924255 6.166394,193.997864 
	C7.500471,188.451721 8.834546,182.905563 10.505066,177.160477 
z" data-index="63" style="opacity: 1;"></path>
<path fill="currentColor" opacity="1.000000" stroke="none" d="
M49.954010,98.890266 
	C52.060299,96.333542 54.166592,93.776817 57.054615,91.097885 
	C62.830524,90.950630 67.824799,90.891846 72.818863,90.906441 
	C93.242653,90.966141 113.750130,89.929131 134.065643,91.449455 
	C152.873810,92.856972 171.600189,96.389473 190.142960,100.087463 
	C224.446320,106.928589 256.999329,119.167542 288.242798,134.734116 
	C312.566711,146.853119 335.445862,161.426422 356.957458,178.055328 
	C362.303162,182.187668 367.121063,187.002792 371.978149,191.743225 
	C369.515015,193.574753 367.255280,195.167099 364.908203,196.441620 
	C360.232452,192.094513 355.855957,187.788818 351.020233,184.082199 
	C325.426727,164.464493 298.021606,147.894730 268.542542,134.683258 
	C242.296707,122.920799 215.236221,113.813202 187.131271,107.780487 
	C165.155869,103.063469 142.996948,100.039871 120.505936,98.746170 
	C101.007935,97.624641 81.658669,98.047951 62.254391,99.759537 
	C58.211277,100.116165 54.057034,99.212914 49.954010,98.890266 
z" data-index="64" style="opacity: 1;"></path>
<path fill="currentColor" opacity="1.000000" stroke="none" d="
M318.037201,232.119568 
	C309.884155,225.875229 302.078979,219.100464 293.514679,213.483154 
	C264.515503,194.462646 233.441772,179.507690 199.972153,170.407104 
	C180.295288,165.056839 160.085632,161.409744 139.925797,158.182175 
	C126.534775,156.038269 112.764977,154.795731 99.242035,155.285294 
	C79.202362,156.010788 59.207901,158.411728 39.242516,160.550491 
	C31.334461,161.397644 23.555853,163.453156 15.301537,164.957764 
	C15.871101,162.194061 16.857437,159.431091 18.380272,156.248840 
	C42.151409,150.560013 65.736031,147.914627 89.497589,147.111969 
	C99.601097,146.770676 109.799904,147.114120 119.860329,148.108337 
	C137.185669,149.820557 154.642792,151.247559 171.679688,154.631500 
	C220.756973,164.379486 265.904907,183.837936 306.994202,212.452515 
	C313.352753,216.880600 319.054993,222.251114 324.886719,227.463501 
	C322.487518,229.200668 320.262360,230.660110 318.037201,232.119568 
z" data-index="65" style="opacity: 1;"></path>
<path fill="currentColor" opacity="1.000000" stroke="none" d="
M372.181580,191.504074 
	C367.121063,187.002792 362.303162,182.187668 356.957458,178.055328 
	C335.445862,161.426422 312.566711,146.853119 288.242798,134.734116 
	C256.999329,119.167542 224.446320,106.928589 190.142960,100.087463 
	C171.600189,96.389473 152.873810,92.856972 134.065643,91.449455 
	C113.750130,89.929131 93.242653,90.966141 72.818863,90.906441 
	C67.824799,90.891846 62.830524,90.950630 57.361023,90.966583 
	C56.927174,90.791725 56.968655,90.625969 57.249336,90.055496 
	C57.678692,89.418556 57.837490,89.166580 57.964935,88.894836 
	C59.758858,86.659706 61.552784,84.424583 63.653275,82.034172 
	C65.981834,82.572403 67.999123,83.851929 70.026550,83.868195 
	C88.964577,84.020142 107.978035,82.909195 126.823631,84.236832 
	C147.158951,85.669411 167.527130,88.348419 187.541718,92.232010 
	C220.013046,98.532654 251.132599,109.386276 281.111694,123.503571 
	C314.123108,139.048828 344.598236,158.523712 372.835327,181.570679 
	C374.637573,183.041656 376.391357,184.572021 378.224182,186.473480 
	C376.247650,188.416183 374.214630,189.960129 372.181580,191.504074 
z" data-index="66"></path>
<path fill="currentColor" opacity="1.000000" stroke="none" d="
M6.093560,194.413803 
	C15.729283,191.924255 25.281582,189.800278 34.857067,187.786560 
	C62.524082,181.968216 90.624191,180.515823 118.649147,182.353638 
	C138.100311,183.629196 157.361084,187.901154 176.679230,191.006622 
	C179.402679,191.444427 181.968475,192.862915 184.711136,194.376984 
	C182.289810,197.977631 179.764587,201.028809 177.239380,204.079971 
	C164.014023,201.700562 150.865433,198.645538 137.541733,197.131775 
	C124.223297,195.618607 110.733734,195.542511 97.311951,195.023926 
	C75.784698,194.192139 54.528599,196.604446 33.505241,201.051590 
	C23.927353,203.077637 14.465982,205.654526 4.559254,207.990265 
	C4.784739,203.609238 5.402733,199.219482 6.093560,194.413803 
z" data-index="67" style="opacity: 1;"></path>
<path fill="currentColor" opacity="1.000000" stroke="none" d="
M49.642654,99.048523 
	C54.057034,99.212914 58.211277,100.116165 62.254391,99.759537 
	C81.658669,98.047951 101.007935,97.624641 120.505936,98.746170 
	C142.996948,100.039871 165.155869,103.063469 187.131271,107.780487 
	C215.236221,113.813202 242.296707,122.920799 268.542542,134.683258 
	C298.021606,147.894730 325.426727,164.464493 351.020233,184.082199 
	C355.855957,187.788818 360.232452,192.094513 364.628418,196.614899 
	C362.953186,198.321930 361.470367,199.537857 359.987549,200.753769 
	C354.260254,195.796890 348.777649,190.518387 342.761719,185.940857 
	C320.966553,169.356903 297.445099,155.590561 272.716431,143.857864 
	C238.068237,127.418777 201.808243,116.289886 163.977539,109.908134 
	C134.953033,105.011932 105.754639,104.432610 76.489189,105.125824 
	C65.900902,105.376617 55.344807,106.985947 44.329475,107.967072 
	C45.700386,105.041443 47.515842,102.124107 49.642654,99.048523 
z" data-index="68" style="opacity: 1;"></path>
<path fill="currentColor" opacity="1.000000" stroke="none" d="
M325.060760,227.185806 
	C319.054993,222.251114 313.352753,216.880600 306.994202,212.452515 
	C265.904907,183.837936 220.756973,164.379486 171.679688,154.631500 
	C154.642792,151.247559 137.185669,149.820557 119.860329,148.108337 
	C109.799904,147.114120 99.601097,146.770676 89.497589,147.111969 
	C65.736031,147.914627 42.151409,150.560013 18.541681,155.915085 
	C18.871475,153.774918 19.576361,151.549225 21.004787,149.123962 
	C41.647293,146.290466 61.500782,142.499908 81.504738,141.367584 
	C99.353920,140.357239 117.396584,141.861633 135.305069,143.014313 
	C162.197525,144.745209 188.311600,150.954651 213.844406,159.228348 
	C249.565918,170.803650 282.765808,187.677750 313.422791,209.388031 
	C319.339081,213.577759 324.584229,218.715225 329.912170,223.644226 
	C328.143799,224.977234 326.602295,226.081528 325.060760,227.185806 
z" data-index="69"></path>
<path fill="currentColor" opacity="1.000000" stroke="none" d="
M385.987366,180.943039 
	C381.819733,176.986420 378.083649,172.403671 373.409515,169.181824 
	C353.418182,155.401993 333.634857,141.219193 312.860260,128.702621 
	C286.961090,113.098541 258.904999,101.912544 230.046219,92.853485 
	C204.090729,84.705795 177.575653,79.355179 150.593399,75.817131 
	C125.051056,72.467888 99.448448,73.180573 73.362946,72.967117 
	C75.343918,70.637131 77.800682,68.316086 80.948669,66.181595 
	C83.937248,66.578758 86.237488,66.999252 88.531525,66.967812 
	C113.822136,66.621101 138.972763,68.092651 164.013519,71.850197 
	C208.928299,78.589951 251.880814,91.650513 292.752838,111.418922 
	C319.328552,124.272682 344.430786,139.618057 367.826630,157.640030 
	C375.822784,163.799561 383.315308,170.612854 390.868835,177.398041 
	C389.128967,178.760117 387.558167,179.851578 385.987366,180.943039 
z" data-index="70" style="opacity: 1;"></path>
<path fill="currentColor" opacity="1.000000" stroke="none" d="
M330.138977,223.415497 
	C324.584229,218.715225 319.339081,213.577759 313.422791,209.388031 
	C282.765808,187.677750 249.565918,170.803650 213.844406,159.228348 
	C188.311600,150.954651 162.197525,144.745209 135.305069,143.014313 
	C117.396584,141.861633 99.353920,140.357239 81.504738,141.367584 
	C61.500782,142.499908 41.647293,146.290466 21.319851,148.945770 
	C21.894129,146.860458 22.876886,144.753754 24.012917,142.323242 
	C33.392578,140.919266 42.615643,139.809647 51.846329,138.767609 
	C60.251343,137.818802 68.645660,136.436325 77.077477,136.120682 
	C120.562447,134.492737 163.364166,138.615402 205.256516,151.156876 
	C244.014786,162.760086 280.048431,179.855942 313.269440,202.886536 
	C320.641449,207.997192 327.720398,213.530533 335.065613,219.320068 
	C333.510925,220.985748 331.824951,222.200607 330.138977,223.415497 
z" data-index="71" style="opacity: 1;"></path>
<path fill="currentColor" opacity="1.000000" stroke="none" d="
M391.037964,177.127426 
	C383.315308,170.612854 375.822784,163.799561 367.826630,157.640030 
	C344.430786,139.618057 319.328552,124.272682 292.752838,111.418922 
	C251.880814,91.650513 208.928299,78.589951 164.013519,71.850197 
	C138.972763,68.092651 113.822136,66.621101 88.531525,66.967812 
	C86.237488,66.999252 83.937248,66.578758 81.295410,66.130264 
	C82.417946,64.312584 83.884964,62.732777 85.653587,61.025799 
	C88.537804,61.265129 91.129318,62.003845 93.701706,61.942356 
	C133.202164,60.998184 171.971237,66.289848 210.182632,75.866043 
	C250.623199,86.000900 288.738556,101.923431 324.814148,122.817604 
	C348.197632,136.360779 369.977173,152.141510 390.751709,169.357178 
	C392.269806,170.615204 393.454681,172.275299 394.753906,174.292053 
	C393.488190,175.599548 392.263092,176.363480 391.037964,177.127426 
z" data-index="72" style="opacity: 1;"></path>
<path fill="currentColor" opacity="1.000000" stroke="none" d="
M57.723488,88.987885 
	C57.837490,89.166580 57.678692,89.418556 57.335331,89.814034 
	C57.282101,89.678505 57.382072,89.379723 57.723488,88.987885 
z" data-index="73"></path>
<path fill="currentColor" opacity="1.000000" stroke="none" d="
M120.736221,36.136417 
	C120.793152,36.396446 120.556549,36.590210 120.087517,36.854771 
	C120.079178,36.674896 120.275047,36.389759 120.736221,36.136417 
z" data-index="74"></path>
<path fill="currentColor" opacity="1.000000" stroke="none" d="
M15.916881,337.041382 
	C13.605751,329.645569 11.294623,322.249786 9.326900,314.415161 
	C14.507584,312.245087 19.353523,310.537628 24.180605,308.778412 
	C42.694492,302.031097 61.818935,297.638489 81.408157,296.296387 
	C93.587219,295.462006 105.910454,296.732086 118.112190,297.414093 
	C113.417206,305.193909 108.779015,312.617310 103.723297,319.953674 
	C97.054688,319.886292 90.792328,319.670166 84.554588,319.968628 
	C63.621296,320.970245 43.640484,326.164429 24.296070,334.049835 
	C21.552435,335.168274 18.712334,336.050079 15.916881,337.041382 
z" data-index="75" style="opacity: 1;"></path>
<path fill="currentColor" opacity="1.000000" stroke="none" d="
M118.168983,297.057648 
	C105.910454,296.732086 93.587219,295.462006 81.408157,296.296387 
	C61.818935,297.638489 42.694492,302.031097 24.180605,308.778412 
	C19.353523,310.537628 14.507584,312.245087 9.279848,314.008972 
	C7.600628,308.638275 6.311867,303.234955 5.467882,297.387451 
	C13.591799,294.299225 21.239559,291.559570 28.955713,289.028473 
	C57.112133,279.792297 86.141953,277.890625 115.490456,279.083527 
	C119.707603,279.254944 123.882736,280.460022 128.061401,281.538208 
	C124.753326,286.945679 121.461159,292.001678 118.168983,297.057648 
z" data-index="76" style="opacity: 1;"></path>
<path fill="currentColor" opacity="1.000000" stroke="none" d="
M15.960831,337.420532 
	C18.712334,336.050079 21.552435,335.168274 24.296070,334.049835 
	C43.640484,326.164429 63.621296,320.970245 84.554588,319.968628 
	C90.792328,319.670166 97.054688,319.886292 103.630112,320.306976 
	C99.958038,328.246429 100.270134,331.205261 105.779045,338.045563 
	C77.256088,337.705780 49.938290,343.244904 23.514328,354.918457 
	C20.779634,349.265656 18.392208,343.532684 15.960831,337.420532 
z" data-index="77" style="opacity: 1;"></path>
<path fill="currentColor" opacity="1.000000" stroke="none" d="
M128.077316,281.186737 
	C123.882736,280.460022 119.707603,279.254944 115.490456,279.083527 
	C86.141953,277.890625 57.112133,279.792297 28.955713,289.028473 
	C21.239559,291.559570 13.591799,294.299225 5.539476,296.972107 
	C4.452353,293.608154 3.738411,290.215302 3.095359,286.411194 
	C7.737509,284.514069 12.351326,283.146729 16.873178,281.523254 
	C48.478260,270.176086 81.171501,266.594177 114.507858,268.137299 
	C121.029686,268.439178 127.483246,270.215729 134.105927,271.924622 
	C132.188156,275.420319 130.132736,278.303528 128.077316,281.186737 
z" data-index="78" style="opacity: 1;"></path>
<path fill="currentColor" opacity="1.000000" stroke="none" d="
M128.061401,281.538208 
	C130.132736,278.303528 132.188156,275.420319 134.407990,272.259003 
	C136.339554,269.247192 138.106720,266.513458 139.956161,263.447754 
	C142.679535,259.049408 145.320648,254.983063 148.034973,250.584991 
	C151.688644,244.727020 155.269135,239.200775 158.925232,233.337341 
	C162.117264,228.191299 165.233688,223.382446 168.480194,218.279739 
	C171.422180,213.576935 174.234070,209.167984 177.142670,204.419495 
	C179.764587,201.028809 182.289810,197.977631 184.974670,194.647797 
	C190.197601,189.362061 196.545029,186.933319 203.650803,185.173538 
	C216.471436,183.646439 227.645340,186.679977 237.826324,195.191742 
	C246.569275,201.771225 254.805557,207.972198 263.050934,214.161087 
	C273.158417,221.747696 283.218445,229.399185 293.405670,236.877335 
	C299.658325,241.467239 306.259766,241.420685 311.046021,237.110077 
	C313.275848,235.648270 315.505676,234.186478 317.886353,232.422119 
	C320.262360,230.660110 322.487518,229.200668 324.886719,227.463501 
	C326.602295,226.081528 328.143799,224.977234 329.912170,223.644226 
	C331.824951,222.200607 333.510925,220.985748 335.399811,219.484406 
	C338.490997,217.094971 341.379303,214.992020 344.492218,212.621613 
	C347.464630,210.145157 350.212463,207.936157 353.050049,205.391525 
	C355.274139,203.797714 357.408478,202.539566 359.765198,201.017578 
	C361.470367,199.537857 362.953186,198.321930 364.715759,196.932739 
	C367.255280,195.167099 369.515015,193.574753 371.978149,191.743225 
	C374.214630,189.960129 376.247650,188.416183 378.570831,186.660156 
	C381.113464,184.799377 383.365936,183.150681 385.802917,181.222504 
	C387.558167,179.851578 389.128967,178.760117 390.868835,177.398041 
	C392.263092,176.363480 393.488190,175.599548 394.921082,174.608459 
	C405.682953,171.768723 412.332397,176.602295 412.647522,187.505478 
	C411.157379,190.665176 409.657135,193.427902 408.051056,196.511032 
	C405.675903,200.327499 403.406525,203.823532 401.004272,207.638184 
	C399.535522,210.043365 398.199646,212.129929 396.750031,214.545044 
	C395.422760,216.679428 394.209229,218.485229 392.883118,220.608109 
	C390.920166,223.735764 389.069855,226.546356 387.076141,229.666840 
	C386.000885,231.431885 385.069061,232.887054 384.067505,234.667877 
	C382.138824,237.786133 380.279907,240.578720 378.328430,243.689667 
	C376.459290,246.746002 374.682648,249.484009 372.801514,252.557861 
	C371.480591,254.699387 370.264221,256.505096 368.971436,258.639221 
	C367.656006,260.765381 366.416992,262.563110 365.044922,264.665833 
	C363.615356,267.002808 362.318817,269.034760 360.951263,271.390594 
	C359.600891,273.574036 358.321533,275.433624 356.926239,277.614319 
	C355.219757,280.385864 353.629211,282.836304 351.961517,285.625488 
	C348.610046,291.021820 345.335693,296.079468 341.990143,301.470398 
	C337.954285,307.296051 333.989624,312.788422 329.865601,318.586060 
	C324.657715,321.779907 319.609222,324.668518 314.280823,327.776520 
	C306.949341,327.987976 299.897797,327.980042 292.424072,327.973358 
	C285.911621,324.288239 279.513519,321.022766 273.788422,316.836853 
	C256.314941,304.061005 239.130020,290.891144 221.772079,277.956146 
	C213.866302,272.064789 207.863007,272.224243 199.772797,278.496399 
	C196.507492,281.007080 193.448380,283.226288 190.213394,285.728149 
	C186.776321,288.396759 183.515137,290.782715 180.080017,293.444214 
	C174.662399,297.597778 169.418701,301.475830 163.993057,305.642761 
	C159.571106,309.054352 155.331116,312.177094 150.910049,315.590576 
	C146.865204,318.700195 143.001404,321.519043 138.955399,324.628418 
	C133.343430,328.903320 127.974266,332.974487 122.453163,336.828033 
	C120.332413,338.308289 117.865349,339.292389 115.264587,340.691284 
	C112.136177,340.013702 109.299263,339.147339 106.120697,338.163269 
	C100.270134,331.205261 99.958038,328.246429 104.047638,320.393982 
	C108.779015,312.617310 113.417206,305.193909 118.112190,297.414093 
	C121.461159,292.001678 124.753326,286.945679 128.061401,281.538208 
z" data-index="79" style="opacity: 1; visibility: visible; fill: rgb(255, 255, 255);"></path>
<path fill="currentColor" opacity="1.000000" stroke="none" d="
M310.860352,236.824020 
	C306.259766,241.420685 299.658325,241.467239 293.405670,236.877335 
	C283.218445,229.399185 273.158417,221.747696 263.050934,214.161087 
	C254.805557,207.972198 246.569275,201.771225 238.150574,195.292206 
	C240.830124,195.797653 243.867188,196.201797 246.517975,197.435715 
	C269.358215,208.067642 290.922241,220.824905 310.860352,236.824020 
z" data-index="80"></path>
</svg>
