<?xml version="1.0" encoding="UTF-8"?>
<svg version="1.1" xmlns="http://www.w3.org/2000/svg" width="512" height="512" viewBox="0 0 512 512">
<path d="M0 0 C0.99725098 0.20367188 1.99450195 0.40734375 3.02197266 0.6171875 C48.75666965 10.1725909 88.74494637 33.67344113 122 66 C122.78890625 66.74894531 123.5778125 67.49789062 124.390625 68.26953125 C129.75049619 73.45003667 134.37662156 79.16279143 139 85 C140.15628906 86.41345703 140.15628906 86.41345703 141.3359375 87.85546875 C164.37841825 116.67721247 179.37068084 151.06439546 187 187 C187.21317871 187.98806641 187.42635742 188.97613281 187.64599609 189.99414062 C193.93307005 220.52708346 193.50087985 254.55722235 187 285 C186.79632813 285.99725098 186.59265625 286.99450195 186.3828125 288.02197266 C176.8274091 333.75666965 153.32655887 373.74494637 121 407 C120.25105469 407.78890625 119.50210937 408.5778125 118.73046875 409.390625 C113.54996333 414.75049619 107.83720857 419.37662156 102 424 C100.58654297 425.15628906 100.58654297 425.15628906 99.14453125 426.3359375 C76.66162295 444.31063003 50.45422544 457.53291738 23 466 C21.89446777 466.34901367 21.89446777 466.34901367 20.76660156 466.70507812 C2.33794001 472.45737711 -17.22583892 476.06198688 -36.5546875 476.23828125 C-37.44584259 476.24802979 -38.33699768 476.25777832 -39.25515747 476.26782227 C-59.17894678 476.4408488 -78.43189741 476.20069645 -98 472 C-99.36535889 471.71116943 -99.36535889 471.71116943 -100.75830078 471.41650391 C-126.90654796 465.7205163 -153.63050089 455.91299941 -176 441 C-178.02977969 441.09771702 -178.02977969 441.09771702 -180.17202759 441.71185303 C-180.97079945 441.91381035 -181.7695713 442.11576767 -182.59254837 442.32384491 C-186.17708647 443.33059564 -189.71705913 444.42849719 -193.24755859 445.61035156 C-194.01814606 445.86435226 -194.78873352 446.11835297 -195.58267212 446.38005066 C-198.10595678 447.21284892 -200.6271705 448.05174036 -203.1484375 448.890625 C-204.9283795 449.47915742 -206.70846236 450.06726401 -208.48867798 450.65496826 C-213.16790078 452.20079942 -217.84544989 453.75163134 -222.52258301 455.30377197 C-229.96965274 457.77417729 -237.41931901 460.23674214 -244.86885452 462.6996994 C-247.43839717 463.54998438 -250.00726923 464.40226788 -252.57601929 465.25494385 C-260.88148421 468.00873328 -269.19670691 470.73221857 -277.52978516 473.40136719 C-278.73879769 473.79353361 -278.73879769 473.79353361 -279.97223473 474.19362259 C-283.08233681 475.18253443 -285.7153666 476 -289 476 C-287.57901761 469.04421732 -285.62574383 462.40769756 -283.39453125 455.671875 C-282.8597113 454.04103218 -282.8597113 454.04103218 -282.31408691 452.37724304 C-281.54815811 450.04413357 -280.78020461 447.71168797 -280.01040649 445.37985229 C-278.80121709 441.71581096 -277.59862502 438.04965602 -276.3972168 434.38305664 C-272.47294404 422.42521831 -268.50093664 410.48550477 -264.4375 398.57421875 C-263.73313114 396.4997376 -263.02894344 394.42519492 -262.32495117 392.35058594 C-261.00953453 388.47472634 -259.67642542 384.60557321 -258.33325195 380.73925781 C-257.73843221 378.99176194 -257.14423795 377.24405299 -256.55078125 375.49609375 C-256.27463989 374.71731369 -255.99849854 373.93853363 -255.71398926 373.13615417 C-253.96692759 367.92266984 -253.60919422 364.14873924 -255.90454102 358.95214844 C-256.26733154 358.3440332 -256.63012207 357.73591797 -257.00390625 357.109375 C-257.41068604 356.41013916 -257.81746582 355.71090332 -258.23657227 354.99047852 C-258.67412842 354.25112061 -259.11168457 353.5117627 -259.5625 352.75 C-279.90212716 317.05847708 -289.47516167 277.28788868 -289.3125 236.375 C-289.31034485 235.40033783 -289.3081897 234.42567566 -289.30596924 233.42147827 C-289.25623349 219.41569057 -288.9562613 205.74055498 -286 192 C-285.69400879 190.52490967 -285.69400879 190.52490967 -285.38183594 189.02001953 C-278.39627547 155.98858841 -265.66453255 124.55502604 -246 97 C-245.54931152 96.35998047 -245.09862305 95.71996094 -244.63427734 95.06054688 C-237.39106614 84.83187297 -229.35158468 75.6244984 -220.609375 66.65185547 C-219.2817637 65.28920104 -217.9672043 63.91384319 -216.65625 62.53515625 C-211.5014982 57.20083318 -205.80874787 52.60083606 -200 48 C-199.05769531 47.22914062 -198.11539063 46.45828125 -197.14453125 45.6640625 C-166.81756993 21.41818657 -130.79036469 6.76074611 -93 -1 C-92.16404297 -1.17934082 -91.32808594 -1.35868164 -90.46679688 -1.54345703 C-61.78740821 -7.44700249 -28.50547965 -6.08718102 0 0 Z M-97 149 C-104.16303729 157.81449076 -110.12827815 167.68126981 -116.33691406 177.17211914 C-126.93427254 193.36594543 -137.64740882 209.47623391 -148.5 225.5 C-159.81023879 242.2023361 -170.96584454 259.00110475 -182.02148438 275.87304688 C-189.54494064 287.34399231 -197.20839297 298.70940674 -205 310 C-204.67 310.66 -204.34 311.32 -204 312 C-195.29562673 305.88490232 -186.61388878 299.74209874 -178 293.5 C-171.4994293 288.78957352 -164.96136109 284.13702384 -158.39453125 279.51953125 C-153.2343328 275.88545434 -148.1107106 272.20328599 -143 268.5 C-136.51028087 263.79746686 -129.99165363 259.13998638 -123.4230957 254.5480957 C-119.59480006 251.86404254 -115.81517742 249.12902354 -112.07421875 246.32421875 C-110.85025391 245.41446289 -110.85025391 245.41446289 -109.6015625 244.48632812 C-108.02204634 243.30935856 -106.45005334 242.1222077 -104.88671875 240.92382812 C-104.17515625 240.39595703 -103.46359375 239.86808594 -102.73046875 239.32421875 C-102.10551514 238.85072998 -101.48056152 238.37724121 -100.83666992 237.8894043 C-99 237 -99 237 -97.09797287 237.25419521 C-94.62910156 238.13185005 -93.43982004 239.19037692 -91.59576416 241.04347229 C-90.94237564 241.69273682 -90.28898712 242.34200134 -89.61579895 243.01094055 C-88.91017319 243.72735214 -88.20454742 244.44376373 -87.47753906 245.18188477 C-86.3501255 246.3086412 -86.3501255 246.3086412 -85.19993591 247.4581604 C-82.71465655 249.94553161 -80.24017481 252.4433643 -77.765625 254.94140625 C-76.04563725 256.66698852 -74.32498643 258.39191011 -72.60369873 260.11619568 C-68.07283268 264.65852173 -63.55104734 269.20978466 -59.03106689 273.76293945 C-54.41806789 278.40661417 -49.7965756 283.04181883 -45.17578125 287.67773438 C-36.10883503 296.77686518 -27.0511638 305.88517123 -18 315 C-14.04840392 311.93767741 -11.00266886 308.72372571 -8 304.75 C-7.03255513 303.49378547 -6.06374913 302.23861829 -5.09375 300.984375 C-4.58972656 300.33146484 -4.08570313 299.67855469 -3.56640625 299.00585938 C-0.92910653 295.62866884 1.78698889 292.31643885 4.5 289 C8.55039028 284.03815292 12.55806222 279.04844663 16.5 274 C20.9820011 268.25989332 25.55956557 262.60306754 30.1640625 256.9609375 C33.65530083 252.67548382 37.09818888 248.35670547 40.5 244 C44.9820011 238.25989332 49.55956557 232.60306754 54.1640625 226.9609375 C57.65530083 222.67548382 61.09818888 218.35670547 64.5 214 C68.9820011 208.25989332 73.55956557 202.60306754 78.1640625 196.9609375 C82.10427588 192.12437227 85.97282322 187.23693107 89.81176758 182.31982422 C95.43895614 175.13095941 101.22467632 168.06995109 107 161 C106.67 160.34 106.34 159.68 106 159 C105.37359619 159.35078613 104.74719238 159.70157227 104.10180664 160.06298828 C102.19531666 161.13062267 100.28882206 162.1982488 98.38232422 163.26586914 C96.13782488 164.52280858 93.89335965 165.7798089 91.64892578 167.03686523 C85.96075668 170.22261608 80.27211938 173.4075211 74.58203125 176.58984375 C63.59459112 182.73619346 52.61956789 188.90347754 41.66357422 195.10571289 C33.58486082 199.67636364 25.49120329 204.22007447 17.38208008 208.73657227 C12.04313216 211.71447317 6.7296212 214.72789973 1.44921875 217.80859375 C-0.12859375 218.7222168 -0.12859375 218.7222168 -1.73828125 219.65429688 C-3.74552155 220.81859827 -5.74713373 221.99267244 -7.7421875 223.17773438 C-8.63808594 223.69529297 -9.53398437 224.21285156 -10.45703125 224.74609375 C-11.24053955 225.20685303 -12.02404785 225.6676123 -12.83129883 226.14233398 C-15.47670722 227.18852555 -16.35621093 226.94689228 -19 226 C-20.69193554 224.67441463 -20.69193554 224.67441463 -22.39750671 222.95652771 C-23.37542175 221.98263092 -23.37542175 221.98263092 -24.37309265 220.98905945 C-25.42917473 219.91444206 -25.42917473 219.91444206 -26.5065918 218.81811523 C-27.63159592 217.6913588 -27.63159592 217.6913588 -28.77932739 216.5418396 C-31.2596559 214.05431599 -33.72930265 211.5564527 -36.19921875 209.05859375 C-37.91673886 207.33294071 -39.6349951 205.60802004 -41.35395813 203.88380432 C-45.87933235 199.3412958 -50.39606488 194.79029447 -54.91064453 190.23706055 C-62.1460719 182.9424724 -69.39422099 175.6605293 -76.64286232 168.379076 C-79.18110552 165.82680707 -81.71553452 163.27079735 -84.24943542 160.71421814 C-85.7934072 159.16022901 -87.3374551 157.6063155 -88.8815918 156.05249023 C-89.59171921 155.33405441 -90.30184662 154.61561859 -91.03349304 153.87541199 C-91.67697693 153.22896729 -92.32046082 152.58252258 -92.98344421 151.91648865 C-93.82600533 151.06670016 -93.82600533 151.06670016 -94.68558788 150.19974422 C-95.82649404 148.88764073 -95.82649404 148.88764073 -97 149 Z " fill="currentColor" transform="translate(305,20)"/>
</svg>
